<?xml version="1.0" encoding="utf-8"?>
<!-- Generator: Adobe Illustrator 28.0.0, SVG Export Plug-In . SVG Version: 6.00 Build 0)  -->
<svg version="1.1" id="Ebene_1" xmlns="http://www.w3.org/2000/svg" xmlns:xlink="http://www.w3.org/1999/xlink" x="0px" y="0px"
	 viewBox="0 0 370 370" style="enable-background:new 0 0 370 370;" xml:space="preserve">
<style type="text/css">
	.st0{fill:#DADEF1;}
	.st1{fill:#FFFFFF;}
	.st2{fill:#36174D;}
	.st3{fill:#F66957;}
	.st4{fill:#19C5FF;}
	.st5{fill:#FFBB4D;}
	.st6{fill:#FFA895;}
	.st7{fill:#F76D6D;}
	.st8{fill-rule:evenodd;clip-rule:evenodd;fill:#FFFFFF;}
</style>
<path class="st0" d="M178.8,73.3c60.8,0,109.9,49.1,109.9,109.7c0,29.9-12,56.9-31.2,76.7c-19.9,20.3-47.8,33.1-78.7,33.1
	c-17.5,0-34.1-4.2-48.8-11.4c-36.2-18-61-55.3-61-98.4C69,122.5,118.2,73.3,178.8,73.3z"/>
<path class="st1" d="M107.5,146.8c9.8,22.8,36.2,33.1,59,23.3c22.8-9.8,33.1-36.2,23.3-58.8c-0.3-0.8-0.6-1.6-1.1-2.4
	c13.6-6.8,20.4-10,20.6-9.6c0.3,0.4,0.4,0.8,0.8,1.5c0.2,0.5,0.4,0.9,0.5,1.5c0.5,0.9,0.9,2,1.4,3.2c0.1,0.4,0.4,0.9,0.7,1.8
	c0.2,0.4,0.3,0.9,0.4,1.3c0.1,0.5,0.3,0.9,0.5,1.8c0.1,0.5,0.2,0.8,0.4,1.2c2.6,9.8,2.8,19.8,1.1,29.3c-0.1,0.5-0.2,1.1-0.3,1.6
	c-0.1,0.5-0.2,1.1-0.4,1.6c-0.1,0.5-0.2,1.1-0.3,1.6c-0.2,0.4-0.3,0.9-0.4,1.3c-0.4,1.2-0.7,2.3-1.1,3.5c-0.1,0.4-0.2,0.7-0.4,1.1
	c-0.5,1.4-1.1,2.9-1.8,4.3c-0.1,0.3-0.2,0.5-0.4,0.8c-0.2,0.5-0.4,1.1-0.7,1.6c-0.5,1-1.1,2-1.6,3c-0.3,0.5-0.5,1-0.8,1.5
	c-5.7,9.8-13.9,18.2-24.1,24.1c-0.9,0.5-1.8,1-2.6,1.5c-0.5,0.3-1.1,0.5-1.6,0.8c-0.5,0.3-0.9,0.5-1.5,0.7c-0.5,0.3-1.1,0.5-1.6,0.7
	c-0.5,0.3-1.1,0.5-1.6,0.7c-0.5,0.3-1.1,0.5-1.6,0.7c-0.4,0.2-0.9,0.4-1.5,0.5c-32.9,11.3-69.8-4.6-83.8-36.9L107.5,146.8
	L107.5,146.8z"/>
<path class="st2" d="M122.3,67.2c32.9-14.1,70.9-0.1,86.8,31.5l-20.3,10.2c-10.5-21-35.8-30.4-57.8-21c-11.3,5-19.5,13.9-23.9,24.5
	l-20.8-8.2C92.9,88.2,105.2,74.6,122.3,67.2z"/>
<path class="st3" d="M122.3,57.1c32.9-14.3,70.9-0.1,86.8,31.5l-20.3,10.2c-10.5-21.1-35.8-30.4-57.8-21
	c-11.3,4.8-19.5,13.9-23.9,24.5l-20.8-8.2C92.8,78.1,105.2,64.5,122.3,57.1z"/>
<path class="st4" d="M84.8,109c0.3-1.1,0.6-2.1,1.1-3.2c0.2-0.5,0.4-1.1,0.5-1.6l20.8,8.2c-4.3,10.6-4.5,23,0.4,34.5l-20.3,8.8
	C80.6,140.2,80.2,123.8,84.8,109z"/>
<path class="st2" d="M127.6,206.3c-14.8-26.1-16.6-62.7-14-84.4c4.4-37.2,60.4-29.1,75.3-7c14.8,21.9,17.8,23.3,45.8,14
	c30.8-10.2,57.5,7.8,63.3,44c7.5,47.8-33.4,77.1-67.1,81C159.7,262,142.5,232.3,127.6,206.3L127.6,206.3z"/>
<path class="st2" d="M172.9,113.5l11.7,6.7c3.5,2.2,7,4.2,10.6,6.1c3.5,1.8,7.1,3.4,10.9,4.2c3.9,0.9,7.9,0.9,11.9,0.1
	c4.2-0.8,7.9-2.6,12-3.9c4-1.3,8.1-2.6,12.3-3.5c7.9-1.8,16.3-2.3,24.2-0.8c7.1,1.3,14.2,4.3,19.8,9c5.4,4.4,9.3,10.2,11.6,16.7
	c2.3,6.6,3.2,13.5,3.1,20.5c-0.3,6.6-1.5,13.2-3.8,19.5c-2.3,6.1-5.7,11.7-10.1,16.6c-4.2,4.6-9.4,8.2-15.5,10
	c-1.4,0.4-2.9,0.8-4.5,0.9c-1.2,0.1-1.5-1.8-0.3-1.9c6.1-0.7,11.6-3.5,16.2-7.5c4.6-4,8.2-9.4,10.9-15.1c2.7-5.8,4.3-12.1,4.9-18.4
	c0.7-6.9,0.3-13.7-1.5-20.3c-1.8-6.3-5-12.4-9.6-17.2c-5-5.1-11.6-8.3-18.5-10.2c-7.7-1.9-15.8-1.8-23.4-0.5
	c-4.2,0.8-8.2,1.8-12.1,3.1c-4,1.2-7.8,2.8-11.9,4c-3.8,1.2-7.8,1.9-11.9,1.5c-3.8-0.3-7.4-1.3-10.9-2.8c-3.6-1.5-7.1-3.4-10.6-5.4
	c-3.6-2.2-7.3-4.3-11.1-6.5c-1.9-1.1-3.7-2.2-5.5-3.2C170.9,114.4,171.9,112.9,172.9,113.5L172.9,113.5z"/>
<path class="st5" d="M91.8,196c2-2.3,5.5-5.6,9.8-9.1c4.8,2.7,22,10.8,46.1,9.8c24.1-1.1,29-17.6,26.4-31.9
	c-1.6-8.5-6.6-15.1-10.5-19.1c6.7-1.6,14-2.8,20.1-2.7c7.4,0.3,15.5,2.6,23.3,5.8c11.3,4.7,22.5,11.3,31.1,16
	c0.5,0.3,1.1,0.5,1.6,0.8c14.9,7.7,42.6,15.9,31.5,43.2c-8.1,19.9-27.1,14.1-37.6,9c-2-1.1-3.8-2-5.1-2.8c-1-0.5-1.8-1-2.3-1.5
	l-4.4,0.7c-3.1-3.4-7-7.3-11.2-10.9c-0.2-0.2-0.4-0.4-0.5-0.5c-10.1-8.2-23.2-5-25.1-0.3c-2,4.7-6.3,23.3-9.4,27.7
	c-2.1,2.9-10.1,8.4-24.2,16.4l24.5,32.8c-13.6,13.6-29,28.3-37.9,34c-17.9,11.4-41.9,1.5-44.3-10.6c-2.6-12.1-8.6-49.7-9-70
	C84.3,212.6,84.9,204.2,91.8,196L91.8,196z"/>
<path class="st6" d="M159.1,124.5c4.4,2.7,7.4,5.6,9,8.7c-0.4,4-0.3,7.1,0.3,9.3c0.8,3.4,3.9,11.8-0.3,17c-4,5.2-10.1,8.5-18.2,7.9
	c-11.1-0.7-15-3.5-18.2-8.9c-1.3-2.2-1.9-5.7-1.9-10.8c5.8,0.6,11.5-2.4,16.8-9.1C151.2,133.1,155.4,128.4,159.1,124.5L159.1,124.5z
	"/>
<path class="st6" d="M130.2,143.2c3.8,0.7,6.2,4.3,5.5,7.9c-0.7,3.8-4.3,6.2-8.1,5.5c-3.6-0.7-6.1-4.3-5.4-7.9
	C122.9,144.9,126.4,142.5,130.2,143.2z"/>
<path class="st5" d="M130.2,246.4c0.4-0.7,0.8-1.4,1.2-2.1c2.3-3.6,5.2-7.1,8.2-10.2c3.5-3.8,7.4-7,11.3-10.2
	c7.9-6.3,16.3-12.1,24.2-18.4c3.9-3.2,7.8-6.7,11.3-10.4c2.6-2.9,5.1-5.9,7.4-9.1c1-1.4,1.9-2.7,2.8-4c1.3-2,2.4-3.9,3.5-5.9
	c-0.8-0.6-1.7-1.3-2.6-1.9c-1.1-0.5,0.1-2,1.1-1.4c0.8,0.5,1.6,1.1,2.4,1.8c0.7-0.4,1.8,0.1,1.4,1.1c5.4,4.4,9.6,10.4,12.3,16.8
	c3.4,7.9,4.4,16.8,3.1,25.3c-0.8,4.3-2.1,8.6-4.3,12.4c-0.2,0.4-0.4,0.7-0.5,1.1c-2.3,4.2-5.1,8.2-7,12.8c-0.9,2.6-1.4,5-1.5,7.7
	s-0.1,5.4-0.9,7.9s-2.6,4.6-4.7,6.1c-1.9,1.5-4,2.7-6.2,3.9c-4,2-8.2,3.6-12.5,4.7c-4.9,1.2-9.8,1.9-14.8,1.9
	c-9.4,0.1-19-1.8-27.5-5.9c-2.2-1-4.2-2.1-6.2-3.4c-1-0.6-2-1.3-3-2c-0.4-0.4-0.9-0.7-1.3-1.1c-0.3-0.1-0.5-0.3-0.7-0.5
	c-0.3-0.4-0.3-0.8-0.3-1.2C125.7,256.5,127.5,251,130.2,246.4L130.2,246.4z"/>
<path class="st6" d="M106.2,182.2c2-1.9,4-3.8,6.1-5.5c7-6.1,13.2-11.6,14.9-13.6c2.5-2.9,4-8,4.4-15.3l10.4,4.3
	c6.6-2.5,13.8-4.7,21.6-6.5c3.6,3.8,8.2,9.7,10.1,17.2c0.1,0.6,0.2,1.3,0.4,1.9c0.4,2.8,0.7,5.8,0.5,8.8
	c-0.7,11.6-7.7,22.3-26.9,23.2c-3.8,0.1-7.4,0-10.8-0.1c-5.5-0.4-10.6-1.2-15.1-2.3c-10.2-2.3-17.4-5.8-20.5-7.5
	C102.8,185.2,104.5,183.8,106.2,182.2L106.2,182.2z"/>
<path class="st3" d="M112.2,176.7c5.1,2.7,9.8,5.8,14.3,9.4c3.8,3.1,7.3,6.6,10.4,10.4c2.6,3,4.9,6.1,7,9.4c2.2,3.4,4.2,7,5.8,10.8
	c5.5-3.4,10.8-6.9,15.6-10.9c4.8-3.9,9.1-8.2,13.1-12.9c2-2.2,3.8-4.6,5.5-7c-2.7-4.4-5.8-8.6-9.3-12.4c-2.7-2.9-5.5-5.6-8.5-8.1
	c-0.4-0.3-0.7-0.5-1.1-0.8c-0.4-0.5-0.9-0.9-1.5-1.2c1.1-0.8,2.1-1.8,3-2.8c0.6-0.8,1.2-1.7,1.6-2.6c0.5,0.4,0.9,0.9,1.5,1.2
	c1.4,1.2,2.7,2.4,4,3.6c0.6,0.6,1.3,1.3,2,1.9c4.8,4.7,9.2,9.6,13.5,14.9c1.6,2.1,3.2,4.1,4.7,6.2c2.4,3.4,4.7,6.9,6.7,10.4
	c0.4,0.7,0.8,1.4,1.2,2.1c0.3,0.4,0.3,0.8,0,1.2c4.6,10.1,9,20.5,11.2,31.5c-0.8,1.4-1.6,2.8-2.4,4.2c-0.4,0.7-0.9,1.4-1.2,2.1
	c-1.2,2.7-3.1,5.2-3.9,8.2c-0.7,3.6-0.8,7.4-0.5,11c0,1.3,0,2.5,0.1,3.8c0.2,1,0.3,2.1,0.4,3.2c0.2,1.1,0.3,2.2,0.3,3.4
	c0,0.8,0.1,1.8,0.1,2.6c0,0.9,0,1.8-0.1,2.7c0.1,1.6-1.4,3.5-2.8,3.5c-8.2,0.8-21.6,4.9-26.1-4.4c-0.4-0.9-0.7-1.9-1.1-3
	c-1.2-4.2-2.6-9.2-6.1-12.1c-1-0.9-2-1.8-3-2.8c-2.2-1.9-4.2-3.8-6.6-5.2c-2.2-1.4-4.4-2.3-6.9-2.7c-0.1,0.4-0.4,0.5-0.8,0.7
	c-0.3,0-0.5,0.1-1.4,0.3c-0.4,0.1-0.9,0.2-1.4,0.4c-0.3,0.1-0.4,0.1-0.9,0c-5.2,2.3-10.2,5.5-14.4,9.6c-0.4,0.3-0.8,0.1-1.4,0.1
	c-0.8,0.5-1.6-0.3-1.4-1.1c0.1-0.3,0.2-0.5,0.3-0.8v-3c-0.3-1.1-0.4-2.3-0.5-3.8c0-1.2-0.1-2.4,0-3.9c-0.5-1.2,0-2.6-0.5-3.9
	c-0.3-0.5-0.3-1.1,0-1.6c0.3-0.4-0.4-0.4-0.3-0.8c0.5-0.8,1-1.6,1.5-2.4c0.9-1.5,1.8-3.1,2.8-4.6c2-3.1,4-6,6.2-8.9
	c-0.3-1.1-0.8-2-1.2-2.8c-1.2-2.4-2.4-4.8-3.8-7c-4-6.5-8.8-12.5-14.3-17.8c-2.2-2.1-4.6-4.2-7.1-6.2c-2.7-2.1-5.5-4.1-8.5-5.8
	C108.2,180.3,110.2,178.4,112.2,176.7L112.2,176.7z"/>
<path class="st6" d="M175.6,230.1c3.1-4.4,7.4-23,9.4-27.7c1.9-4.7,15-7.9,25.1,0.3c0.2,0.2,0.4,0.4,0.5,0.5
	c4.2,3.6,8.1,7.5,11.2,10.9l-6.2,0.8c-6.6-3.6-8.2-3.5-5,0.4c4.9,5.9-5.4,31.4-8.1,35.4c-1.5,2-13.1,14.9-26.7,28.7l-24.5-32.8
	C165.4,238.5,173.5,233,175.6,230.1L175.6,230.1z"/>
<path class="st7" d="M125.7,148.2c0.4-0.4,0.8-0.5,1.3-0.3c1.7,1.1,3.3,2.2,4.8,3.5c0.4,0.4,0.5,0.9,0.1,1.4
	c-0.3,0.4-0.8,0.5-1.2,0.1c-1.5-1.3-3.2-2.5-5-3.5C125.5,149.1,125.5,148.4,125.7,148.2L125.7,148.2z"/>
<path class="st6" d="M183.5,152.9c1.1-1.3,3-2,4.6-1.8c2.1,0.3,3.8,1.1,5.2,2.4c1.5,1.5,3,3.9,5,4.7c1.6,0.7,3.5,0.4,4.4-1.1
	c0.1-0.2,0.3-0.3,0.5-0.4c1.2-1.6,2-3.8,2.7-5.7c0.3-0.8,0.6-1.6,0.9-2.4c1.4-4.2,2.7-8.4,3.9-12.7c0.7-2.3,1.1-4.4,2.4-6.5
	c1.1-1.6,2.7-2.8,4.7-3c1.9-0.1,3.8,0.7,4.6,2.4c0.9,2.3-0.1,4.7-0.8,6.9c-1.4,4.2-2.7,8.4-4.2,12.6c5.7,1.1,11.3,2.6,15.9,6.3
	c2.2,1.8,4,4,5.1,6.6c0.5,1.3,0.9,2.7,1.1,4c0.1,1.8,0,3.6-0.4,5.4c-0.8,2.6-2,4.9-3.1,7.3c0.8,0.8,6,2.8,15.5,5.9
	c4.2,6,3.3,14-2.8,24.1c-5.1,8.6-14.3,9.6-15.2,9.6c-2-1.1-3.8-2-5.1-2.8c-1-0.8-1.9-1.7-2.8-2.6c-16-14.1-26.3-22.2-32.2-43.2
	c-1.3-5-5.1-8.2-5.1-8.4c-1.2-1.3-3.2-2.7-4.3-4.2C183,155.2,182.2,154.4,183.5,152.9L183.5,152.9z"/>
<path class="st3" d="M131.6,239.2c0.9,6.5,0.9,12,0.3,18.4c-0.1,1.2-1.9,0.9-1.8-0.3c0.7-6.2,0.5-11.7-0.3-18
	C129.8,238.2,131.5,237.9,131.6,239.2z"/>
<path class="st2" d="M141.9,139.4c2-1.3,4.4-2,6.9-2.4c1.1-0.3,7.1-0.8,4.6,2.1c-0.8,0.9-2.4,0.5-3.4,0.7c-2.6,0-5.1,0.5-7.5,1.2
	c-0.4,0.1-0.9-0.1-1.1-0.5C141.2,140.1,141.5,139.7,141.9,139.4L141.9,139.4z"/>
<path class="st7" d="M159.7,147.6c-0.1-1.3-0.1-2.7,0-4c0.1-1.5,0.3-3,1.2-4c0.7-0.9,2.2,0.1,1.5,1.1c-0.9,1.1-0.9,2.6-0.9,3.9
	c0,1.3-0.1,2.7,0.4,4c0.2,0.5,0.5,1.1,0.9,1.6c0.5,0.5,1.1,0.9,1.2,1.8c0.3,1.3-0.5,2.7-1.6,3.5c-0.9,0.7-2.2-0.7-1.2-1.4
	c0.5-0.4,0.9-0.8,1.1-1.5c0.1-0.5-0.4-0.9-0.8-1.3C160.5,150.3,159.9,149,159.7,147.6L159.7,147.6z"/>
<path class="st2" d="M162.4,134.3c1.6-1.2,3.6-1.9,5.8-1.8c1.8-0.1,1.9,1.8,0.8,1.9c-1.5,0.1-3,0.7-4.2,1.5
	c-0.6,0.5-1.2,0.9-1.6,1.5c-0.5,0.7-0.9,1.5-1.6,2.1c-0.4,0.4-0.9,0.5-1.3,0C158.7,137.8,160.9,135.4,162.4,134.3L162.4,134.3z"/>
<path class="st7" d="M150.4,154.8c0.4-0.3,0.9-0.3,1.2,0.1c0.2,0.2,0.3,0.4,0.4,0.5c0.5,0.5,0.8,0.7,0.9,0.8
	c1.3,0.4,1.5,0.5,1.8,0.5c1.6-0.3,2.2-0.1,2.3,0.4c0.1,0.4,0,0.9-0.5,1.1c-2.3,0.7-5-0.1-6.3-2.3C150,155.6,150,155,150.4,154.8
	L150.4,154.8z"/>
<path class="st7" d="M213.6,158.1c0.5-1.1,2.2-0.4,1.8,0.7c-0.9,1.9-2,4.2-1.8,6.3c0.3,2,1.9,3.4,3.6,4.2c2.2,1.1,4.3,2,6.5,2.8
	c2.3,0.8,4.6,1.5,7,1.6c2.7,0.3,5.2-0.4,7.4-2c0.9-0.7,2,0.8,1.1,1.5c-4.4,3.5-10.4,2.6-15.4,0.8c-2.4-0.8-4.9-1.9-7.1-3
	c-2.1-1.1-4-2.4-4.7-4.8C211.3,163.5,212.3,160.6,213.6,158.1L213.6,158.1z"/>
<path class="st7" d="M227.3,173.1c2.4-2,3.9-4.8,4.7-7.9c0.4-1.6,0.8-3.2,0.9-4.8c0.1-0.9,0.1-1.8,0.1-2.6v-1.2
	c-0.3-0.5-0.5-0.8-0.7-1.1c-0.1-0.4,0.1-1.1,0.5-1.2c2.3-0.5,2,2.7,1.9,4.2c-0.1,2.1-0.4,4.1-0.8,6.1c-0.5,2-1.1,4-2,5.8
	c-1,1.6-2.2,3.1-3.6,4.3C227.4,175.2,226.4,173.9,227.3,173.1z"/>
<path class="st7" d="M219.4,169.7c1.1-0.8,1.9-2,2.4-3.4c0.7-1.5,1.2-3.1,1.6-4.7c1.1-3.4,1.6-6.9,1.1-10.4
	c-0.1-1.2,1.6-1.4,1.9-0.3c0.5,3.9-0.1,7.7-1.2,11.3c-0.5,1.8-1.1,3.4-1.9,5.1c-0.7,1.4-1.5,2.8-2.8,3.8
	C219.3,171.7,218.3,170.4,219.4,169.7L219.4,169.7z"/>
<path class="st4" d="M181.8,244.1l10.6-57.1c0.7-3.6,4.2-6.6,7.8-6.6h27.5c3.6,0,6.1,3,5.4,6.6l-10.6,57.1c-0.8,3.6-4.3,6.5-7.9,6.5
	H187C183.4,250.6,181.1,247.8,181.8,244.1L181.8,244.1z"/>
<path class="st1" d="M216.8,200.5l2-10.2c0.4-2.3,2.6-4.2,4.9-4.2h1.1c2.3,0,3.8,1.9,3.4,4.2l-2,10.2c-0.4,2.3-2.6,4.2-4.9,4.2h-1.1
	C217.9,204.7,216.4,202.8,216.8,200.5z"/>
<path class="st2" d="M223.2,194.5c1.8,0,3.2-1.4,3.2-3.1s-1.4-3.1-3.2-3.1s-3.2,1.4-3.2,3.1S221.5,194.5,223.2,194.5z"/>
<path class="st2" d="M221.6,202.6c1.8,0,3.2-1.4,3.2-3.1s-1.4-3.1-3.2-3.1s-3.2,1.4-3.2,3.1S219.9,202.6,221.6,202.6z"/>
<path class="st6" d="M183,208.7c1.1-1.9,2.7-3.2,4.6-3.9c0.9-0.4,2-0.5,3-0.4c0.3-0.1,0.5-0.3,0.8-0.1l15.8,7.5
	c2.3,1.1,4.7,2,6.5,3.9c1.6,1.6,2.6,4.3,1.6,6.5c-0.5,1.4-1.8,2.3-3.1,2.4c0.4,0.9,0.5,2,0.3,3.1c-0.5,1.9-2.1,3.2-4,3.4
	c-2.2,0-4.2-1.2-6.1-2c-2.1-1-4.1-2-6.1-3c-2-1.1-3.9-2.2-5.9-3.4c-1.8-1.1-3.6-2-5.1-3.5c-1.5-1.2-2.6-3-3-5
	C181.8,212.4,182,210.4,183,208.7L183,208.7z"/>
<path class="st6" d="M182,221.1c0.3-1.2,0.9-2.3,2-2.8c0.3-0.2,0.6-0.3,0.9-0.4c-0.3-0.7,0.5-1.5,1.1-0.9c4,3.2,8,6.5,12,9.7
	c1.8,1.5,3.8,2.8,5.1,4.7c1.2,1.6,1.9,3.8,1.2,5.6c-0.8,2.1-3.2,3-5.2,2.6c-2.2-0.4-4-1.9-5.7-3.2c-1.9-1.5-3.9-3-5.8-4.6
	c-1.5-1.2-3-2.6-4-4.2C182.3,225.7,181.5,223.4,182,221.1z"/>
<path class="st6" d="M177.4,233.6c0.3-1.5,0.7-3,1.2-4.4c0.4-1.1,0.8-2.3,1.6-3.2c0.9-1.1,2.3-1.8,3.8-1.6c1.4,0.1,2.6,0.8,3.5,1.8
	c0.4,0.4,0.7,0.7,0.9,1.1c0.3,0,0.5,0.1,0.7,0.5c0.3,0.8,0.5,1.7,0.8,2.6c0.4,1.4,0.9,2.7,1.6,3.9c0.3,0.4,0.3,0.9-0.3,1.4
	c0.1,0.4,0.2,0.8,0.3,1.2c0.7,3,1.5,6.1,1.4,9.1c0,2.6-0.8,5.1-2.7,7c-1.6,1.8-4,2.6-6.6,2c-2.3-0.7-4.3-2.3-5.5-4.4
	c-1.4-2.4-1.8-5.2-1.8-8.1C176.5,239.4,176.8,236.5,177.4,233.6L177.4,233.6z"/>
<path class="st6" d="M185,202.1c0.3-0.5,0.7-1,1.2-1.4c3.1-2.3,7.5-2.4,11.2-2.8l10.2-1.1c2.4-0.3,5.4-0.8,7.7,0.4
	c1.1,0.5,1.9,1.6,2,2.8c0.1,1.4-0.3,2.6-0.9,3.6c-1.8,2.3-4.9,2.8-7.5,3.2c-3.3,0.5-6.6,0.9-10,1.2c-1.7,0.2-3.4,0.3-5,0.4
	c-1.5,0-2.8,0.1-4.2,0c-1.1-0.1-2-0.4-3-0.8C184.3,206.2,183.9,203.9,185,202.1L185,202.1z"/>
<path class="st7" d="M182.6,227.3c0.3-0.4,0.9-0.5,1.3-0.1c2.7,2.5,5.4,5,8.2,7.5c0.3,0.3,0.4,0.8,0.1,1.2c-0.3,0.4-0.9,0.5-1.3,0.1
	c-2.7-2.5-5.4-5-8.2-7.5C182.4,228.3,182.3,227.7,182.6,227.3L182.6,227.3z"/>
<path class="st7" d="M190.5,211.3c0.4-0.4,0.9-0.4,1.4-0.1c6.9,4.4,13.8,8.8,20.8,13.1c0.4,0.3,0.4,0.9,0.1,1.2
	c-0.3,0.5-0.8,0.5-1.2,0.3c-6.9-4.4-13.8-8.8-20.8-13.1C190.4,212.4,190.3,211.7,190.5,211.3L190.5,211.3z"/>
<path class="st7" d="M188.4,219c4,2.8,8.1,5.6,12.1,8.5c0.9,0.5-0.1,2-1.1,1.4c-4-2.8-8.1-5.6-12.1-8.3
	C186.3,219.8,187.4,218.3,188.4,219L188.4,219z"/>
<path class="st7" d="M193.4,203.8c3.4,1.7,6.8,3.4,10.1,5.1c1.7,0.8,3.4,1.7,5.1,2.6c1.5,0.7,3.1,1.4,4.4,2.3c1.4,0.8,2.4,2,2.8,3.6
	c0.1,1.1-1.6,1.4-1.9,0.1c-0.3-1.5-1.9-2.4-3.1-3c-2-1-3.9-2-5.9-3c-4.1-2.1-8.2-4.1-12.3-6.1C191.6,205,192.3,203.2,193.4,203.8
	L193.4,203.8z"/>
<path class="st1" d="M156.7,146.3c0.5-0.5,1.2-0.9,1.9-1.2c0.7-0.3,1.5-0.4,2.3-0.4c0.4,0.1,0.8,0.7,0.7,1.1c0,0.5-0.4,0.8-0.9,0.8
	c-2.7,1.1-2.8,1.2-3.1,1.2c-0.1,0-0.4,0-0.7-0.1c-0.1-0.3-0.3-0.4-0.3-0.7S156.6,146.5,156.7,146.3L156.7,146.3z"/>
<path class="st1" d="M236.2,178.1c0.1-0.4,0.7-0.5,1.2-0.4c6.9,2.1,13.8,4.7,20.6,7.5c1.9,0.8,3.8,1.7,5.7,2.6
	c1.1,0.5,0.4,2.1-0.7,1.6c-6.6-3.1-13.5-5.7-20.5-8.1c-2-0.7-3.9-1.4-5.9-2C236.2,179.1,235.9,178.5,236.2,178.1L236.2,178.1z"/>
<path class="st7" d="M135.6,161.9c0.3-0.4,0.8-0.7,1.2-0.5c5,2.7,10.4,5,16.2,5c3.8,0.1,7.5-0.8,10.6-3c1.1-0.8,2.1-1.8,3-2.8
	c0.6-0.8,1.2-1.7,1.6-2.6c0.7-1.4,1.1-3,1.2-4.7c0-0.5,0.5-0.8,0.9-0.8c0.5,0.1,0.8,0.5,0.8,1.1c0,2-0.7,3.9-1.5,5.7
	c-1.1,2.1-2.7,3.9-4.6,5.4c-0.7,0.5-1.5,1-2.3,1.3c-2.6,1.4-5.4,2-8.2,2.2c-0.5,2.3-1.3,4.5-2.4,6.6c-0.3,0.4-0.7,0.7-1.2,0.4
	c-0.4-0.1-0.7-0.7-0.4-1.2c0.9-1.8,1.7-3.7,2.3-5.6c-2.4-0.1-4.7-0.5-7-1.1c-3.4-0.9-6.6-2.4-9.7-4
	C135.7,162.8,135.4,162.4,135.6,161.9L135.6,161.9z"/>
<path class="st4" d="M170,135c4.7,0.7,7.9,4.9,7.4,9.6c-0.5,4.7-4.8,7.9-9.6,7.4c-4.6-0.5-8-4.8-7.4-9.6
	C161.1,137.8,165.5,134.4,170,135L170,135z"/>
<path class="st8" d="M167.9,152.6c-2.6-0.3-4.7-1.5-6.2-3.5c-1.5-1.9-2.2-4.3-1.9-6.9c0.7-5,5.2-8.6,10.4-7.9
	c2.4,0.3,4.6,1.5,6.2,3.5c1.5,2,2.2,4.4,1.8,6.9c-0.3,2.4-1.5,4.6-3.5,6.2c-1.6,1.2-3.5,1.9-5.7,1.9
	C168.6,152.8,168.2,152.7,167.9,152.6L167.9,152.6z M161.3,142.5c-0.5,4.2,2.4,8.1,6.7,8.6c2,0.3,4-0.3,5.8-1.5
	c1.6-1.4,2.7-3.1,2.8-5.2c0.3-2-0.3-4-1.5-5.7c-1.4-1.6-3.1-2.7-5.2-3c-0.3-0.1-0.6-0.1-0.9-0.1
	C165.2,135.7,161.8,138.6,161.3,142.5L161.3,142.5z"/>
<path class="st4" d="M150.1,139.8c4.7,0.5,7.9,4.8,7.4,9.4c-0.7,4.7-4.8,8.1-9.6,7.4c-4.7-0.5-7.9-4.8-7.4-9.6
	C141.2,142.5,145.4,139.1,150.1,139.8L150.1,139.8z"/>
<path class="st8" d="M147.8,157.5c-5-0.7-8.6-5.4-7.9-10.4c0.5-5.1,5.2-8.8,10.4-8.1c5,0.7,8.6,5.2,7.9,10.4
	c-0.5,4.7-4.6,8.1-9.2,8.1C149,157.5,147.8,157.5,147.8,157.5z M141.3,147.2c-0.5,4.3,2.4,8.2,6.7,8.8c4.2,0.5,8.1-2.6,8.6-6.7
	c0.5-4.3-2.4-8.2-6.7-8.8H149C145.1,140.5,141.7,143.3,141.3,147.2z"/>
<path class="st2" d="M147.3,148.6c0.1-0.4,0.3-0.8,0.4-1.1c0.2-0.2,0.3-0.4,0.4-0.5c0.9-0.4,1.2-0.3,1.3-0.1c0.5,1.1,0.7,1.5,0.5,2
	c0,0.3-0.1,0.5-0.3,0.8c-2,0.3-2.2,0.1-2.3-0.1C147.3,149,147.3,148.7,147.3,148.6L147.3,148.6z"/>
<path class="st2" d="M161.4,144.4c0.1-0.7,0.3-0.9,0.5-1.2c0.3-0.4,0.6-0.5,0.9-0.4c0.3,0,0.5,0.1,0.7,0.5c0.1,0.2,0.1,0.4,0.1,0.5
	c-0.8,2.1-1.1,2.3-1.5,2.1c-0.3,0-0.5-0.3-0.7-0.5c-0.1-0.3-0.1-0.6-0.1-0.9V144.4L161.4,144.4z"/>
<path class="st1" d="M111.7,123.7c0.5-0.5,1.2-1.2,1.9-1.5c-0.5,13.1-0.4,19.4,1.2,39.3c0.3,3.6,1.2,7.3,2,10.8
	c0.3,1.2-1.6,1.3-1.8,0.3c-2.8-12.9-3.8-26-3.9-39.2C111.2,130.1,111.4,126.9,111.7,123.7z"/>
<path class="st1" d="M84.8,208.9c0.5-2.7,1.1-5.5,2.3-8.1c1.1-2.4,2.6-4.6,4.2-6.5c1.9-2.1,3.9-4.2,6.2-6.5c2.2-2.1,4.5-4.1,6.9-6.2
	c0.4-0.4,0.9-0.8,1.3-1.2c3.1-2.8,6.3-5.5,9.6-8.2c0.8-0.8,1.9,0.7,1.1,1.3c-3.1,2.6-6.1,5.2-9,7.8c-0.5,0.4-1,0.9-1.5,1.4
	c-2.3,2-4.7,4.2-7.3,6.7c-3.6,3.4-7.3,6.9-9.4,11.3c-1.3,2.4-1.9,5.2-2.4,7.9c-0.6,2.8-1.1,5.6-1.4,8.4c-0.4,3.4-0.4,8.1-0.7,11.3
	c-0.6-1.9-1.2-3.9-1.8-5.9C83.3,217.9,83.8,213.5,84.8,208.9L84.8,208.9z"/>
<path class="st1" d="M192.7,249.3c3.4,0.1,6.7-0.1,10.1,0c2.4,0.1,5,0.1,7.4,0.1c2.2,0,4.6,0.1,6.6-0.5c1.2-0.4,2-1.2,2.7-2.3
	c0.7-1.1,1.1-2.3,1.5-3.5c0.4-1.6,0.8-3.2,1.1-4.9c2.7-13.1,5.4-26.2,7.9-39.3c0.8-3.6,1.6-7.3,2-10.9c0.1-1.5,0.1-3.2-0.7-4.6
	c-0.7-1.1-1.8-1.9-3.1-1.6c-1.1,0.1-1.4-1.6-0.3-1.9c3.1-0.5,5.4,2.3,5.8,5c0.3,1.6,0,3.2-0.3,4.9c-0.3,1.7-0.5,3.5-0.8,5.2
	c-1.4,6.9-2.8,13.7-4.2,20.7l-4.3,20.7c-0.3,1.7-0.6,3.4-1.1,5c-0.3,1.5-0.7,3.1-1.2,4.4c-0.5,1.4-1.4,2.6-2.4,3.4
	c-1.1,0.9-2.4,1.5-3.8,1.8c-1.5,0.3-3,0.1-4.4,0c-6.3-0.1-12.5,0.4-18.9,0C191.2,251,191.4,249.3,192.7,249.3L192.7,249.3z"/>
<path class="st7" d="M186.3,252.2c1.4-0.4,2.7-1.1,3.8-2c1.1-1.2,1.5-2.6,1.5-4.2c-0.1-3.4-0.8-6.9-1.6-10.1c-0.1-0.5,0-1.1,0.5-1.2
	c0.4-0.1,0.9,0,1.1,0.5c0.5,1.9,0.9,3.8,1.2,5.8c0.4,1.9,0.5,3.8,0.5,5.6c-0.1,1.8-0.7,3.4-2,4.7c-1.2,1.2-2.7,2-4.3,2.4
	c-0.5,0.1-1.1,0-1.2-0.4C185.7,252.9,185.8,252.4,186.3,252.2L186.3,252.2z"/>
<path class="st1" d="M200.9,157.3c5.5-7.5,6.3-17.1,10-25.6c0.8-2,2-4.2,3.9-5.4c1.8-1.1,4.2-1.5,6.1-0.3c1.9,1.1,2.7,3.5,2.6,5.7
	c0,1.2-0.4,2.4-0.8,3.8c-0.4,1.3-0.8,2.5-1.2,3.8c-1.8,5.7-3.9,11.2-6.3,16.6c-0.4,1.1-2.2,0.4-1.6-0.7c2-4.6,3.8-9.2,5.4-13.9
	c0.8-2.3,1.6-4.7,2.3-7.1c0.5-1.9,0.9-4.3-0.4-5.9c-1.2-1.5-3.4-1.4-4.9-0.4c-1.8,1.1-2.7,3.1-3.5,5c-1.6,4-2.7,8.2-4,12.4
	c-1.4,4.6-3.1,9.3-6.1,13.2C201.6,159.4,200.2,158.3,200.9,157.3L200.9,157.3z"/>
<path class="st1" d="M232.8,116.6c0.8-0.3,1.1-0.4,1.4-0.4c0.8-0.5,1.1-0.7,1.2-0.8c0.3-0.2,0.5-0.4,0.7-0.5
	c0.8-0.8,1.1-1.2,1.4-1.6c0.3-0.4,0.9-0.5,1.4-0.3c0.4,0.4,0.4,0.9,0.1,1.3c-1.4,2.2-3.5,3.5-5.9,4c-0.4,0.1-0.9-0.3-0.9-0.8
	C231.9,117.1,232.3,116.7,232.8,116.6L232.8,116.6z"/>
<path class="st1" d="M226.8,113.1c0.2-2.1,0.4-4.1,0.5-6.2c0.1-0.4,0.5-0.8,1.1-0.7c0.5,0,0.8,0.5,0.8,0.9c-0.3,2.1-0.5,4.1-0.7,6.2
	c0,0.5-0.5,0.8-1.1,0.8C227,114,226.6,113.6,226.8,113.1L226.8,113.1z"/>
<path class="st1" d="M217.3,106.6c0.5-0.1,1.1,0.1,1.2,0.5c0.8,2.1,1.8,4,3.1,5.8c0.3,0.4,0.3,1.1-0.1,1.4c-0.4,0.3-1.1,0.3-1.4-0.1
	c-1.4-2-2.4-4.1-3.2-6.3C216.7,107.4,216.9,106.9,217.3,106.6L217.3,106.6z"/>
<path class="st1" d="M130.2,230c0-2.5,0-5,0.1-7.4c0-0.5,0.5-0.9,1.1-0.8c0.5,0,0.7,0.5,0.7,1.1l-0.5,26.2c0,2.4,0,4.9-0.1,7.4
	c0,0.5-0.5,0.8-0.9,0.8c-0.5-0.1-0.8-0.5-0.8-1.1C129.8,247.5,130,238.7,130.2,230z"/>
<path class="st3" d="M117.1,267.4c8-7,16.6-13.2,25.6-18.6c2.6-1.4,5.2-2.9,7.9-4.3c0.4-0.1,0.9,0.1,1.2,0.5
	c0.1,0.5-0.1,0.9-0.5,1.2c-9.3,4.7-18.1,10.4-26.3,16.8c-2.3,1.9-4.6,3.8-6.7,5.8C117.4,269.6,116.3,268.2,117.1,267.4z"/>
</svg>
