<?xml version="1.0" encoding="utf-8"?>
<!-- Generator: Adobe Illustrator 28.0.0, SVG Export Plug-In . SVG Version: 6.00 Build 0)  -->
<svg version="1.1" id="Ebene_1" xmlns="http://www.w3.org/2000/svg" xmlns:xlink="http://www.w3.org/1999/xlink" x="0px" y="0px"
	 viewBox="0 0 370 370" style="enable-background:new 0 0 370 370;" xml:space="preserve">
<style type="text/css">
	.st0{fill-rule:evenodd;clip-rule:evenodd;fill:#F66957;}
	.st1{fill:#19C5FF;}
	.st2{fill:#F66957;}
	.st3{fill:#FFBB4D;}
	.st4{fill:#36174D;}
	.st5{fill:#F6B399;}
	.st6{fill:#FFFFFF;}
	.st7{fill-rule:evenodd;clip-rule:evenodd;fill:#FFFFFF;}
	.st8{fill:#EE796A;}
	.st9{fill-rule:evenodd;clip-rule:evenodd;fill:#DADEF1;}
	.st10{fill-rule:evenodd;clip-rule:evenodd;fill:#FFBB4D;}
	.st11{fill-rule:evenodd;clip-rule:evenodd;fill:#F5F5FA;}
	.st12{fill:#F5F5FA;}
</style>
<path class="st0" d="M331.3,216.6c-1.1,0.1-2.3,0.2-3.5,0.2c-0.7,0.1-1.3,0.1-1.8,0c-0.5,0-1.2-0.2-1.5-0.5c-0.5-0.5-0.5-1.3-0.2-2
	c0.2-0.6,0.5-1.1,0.8-1.5c0.6-1.1,1.1-2.2,1.7-3.4c0.2-0.3,0.5-0.5,0.8-0.5c0.2-0.2,0.5-0.5,0.7-0.5c0.5-0.2,1,0.2,1.2,0.7
	c0.9,2.1,1.8,4.1,2.9,6C332.7,216,332.2,216.6,331.3,216.6z M328.3,215c0.6,0,1.1-0.1,1.7-0.2c-0.7-1.2-1.3-2.5-1.8-3.9
	c-0.3,0.8-0.7,1.6-1.2,2.3c-0.2,0.3-0.5,0.8-0.2,1.7C327.2,215,327.8,215,328.3,215z"/>
<path class="st1" d="M239,159.4L261,70c15.4,3.7,29.6,11.4,41.1,22.1c11.4,10.9,20,24.5,24.9,39.6L239,159.4z"/>
<path class="st2" d="M228.1,170.3l88-27.7c2.9,8.9,4.2,18.3,4.2,27.7c0,50.5-41.6,91.9-92.2,91.9s-92-41.4-92-91.9
	c0-3.4,0.2-6.7,0.5-10.1L228.1,170.3z"/>
<path class="st3" d="M228.1,170.3l-91.3-11.4c5.7-45.8,45.2-80.7,91.3-80.7c7.2,0,14.3,0.8,21.2,2.3L228.1,170.3z"/>
<path class="st4" d="M232.6,231.9c-2.2-0.3-3.9-2-4.9-3.9c-1.2-2.5-1-5-0.7-7.7c0.8-4.4,2.7-9.4-0.5-13.1c-2-2.7-5.2-4.2-7.7-6.2
	c-1.2-1.2-2.2-2.3-2.9-3.7c-1-2.2-0.8-4.4-0.3-6.5c0.8-4.9,3-9.7,2-14.8c-0.2-1.2,1.7-1.7,2-0.5c1,5.5-1.3,10.7-2.4,15.9
	c-0.3,2-0.3,4,0.8,5.9c0.8,1.2,2,2.2,3,3c2.7,2,5.7,3.7,7.6,6.4c2.7,3.9,1.3,8.6,0.5,12.8c-0.5,2.3-0.8,4.9,0,7
	c0.7,1.8,2,3.2,3.9,3.5C234.5,230.2,233.9,232.1,232.6,231.9z"/>
<path class="st4" d="M232.1,256.2c-4.2,3.7-9.6,5.5-14.9,6.7c-12.9,2.9-26.4,2.2-39.1-0.8c-11.4-2.7-22.8-6.2-33.4-11.2
	c-5-2.5-10.1-5.4-14.6-8.7c-2.4-1.7-4.5-3.5-6.5-5.4c-1.1-1-2.1-2-3-3c-0.8-0.8-1.8-1.8-2.2-3c-4.2-2.9-6.4-8.1-5-13.1
	c0.7-2.5,2.2-5,4.4-6.5c1.8-1.5,4.4-2.2,6-3.9c0.9-0.9,1.3-2,1.2-3.2c-0.2-1.5-0.7-3-0.7-4.5c0.3-2.7,1.7-5.2,3.7-7
	c1.8-2,4.4-3.2,6.9-4.4c2.4-1,5-2,6.9-4c2-2.2,2.2-5,2.2-7.9c0-12.4,4.7-24.8,16-31.5c6-3.5,13.4-4.9,20.5-3.9
	c7.2,1.2,14.6,2,21.5,5.2c4.7,2.3,8.9,5.5,11.9,9.7c2.9,4,4.7,8.6,5.5,13.3c0.8,4.9,0.7,9.7-0.8,14.4c-0.7,2.7-2,5-3.2,7.4
	c-1.2,2.5-2,5.2-1,7.9c1.3,3.5,5.2,5.5,8.2,7.5c1.5,1.2,3.2,2.5,4.4,4c1.3,1.8,2,3.9,2,6.2c0,4.9-3,10.7,0.8,14.8
	c1.8,1.8,4.2,3,5.7,5c1.5,2,2.4,4.2,2.5,6.7C238.1,248,235.8,252.9,232.1,256.2z"/>
<path class="st5" d="M180.2,204.4c15.8,0,28.5-12.8,28.5-28.5c0-15.8-12.8-28.5-28.5-28.5s-28.5,12.8-28.5,28.5
	C151.7,191.6,164.5,204.4,180.2,204.4z"/>
<path class="st5" d="M185.9,200l-0.8,7.6l-0.2,2l-1.2,9.7l-16.3,0.8l2.2-19.3L185.9,200z"/>
<path class="st5" d="M210.6,182.1c0,15.1-9.6,25.5-24.7,25.5s-30.1-10.4-30.1-25.5c0-15.1,12.3-27.3,27.4-27.3
	S210.6,167,210.6,182.1z"/>
<path class="st4" d="M202.5,180.1c1.1,0,2-0.9,2-2s-0.9-2-2-2c-1.1,0-2,0.9-2,2S201.4,180.1,202.5,180.1z"/>
<path class="st4" d="M209.9,172.7c-0.5,1-1.8,0.7-2.9,0.7c-1,0-2-0.1-3-0.2c-0.8,0-1.8,0-2.7,0.3c-0.7,0.2-1,0.5-1.7,0.7
	c-0.2,0.1-0.5,0.2-0.8,0.2c-0.5,0-0.8-0.3-1-0.8c-0.2-0.3-0.2-0.7,0-1c1-1.7,2.5-2.9,4.4-3.5c1.5-0.7,3.5-1,5.2-0.3
	c0.8,0.3,1.5,0.9,2,1.7C209.9,170.8,210.4,172,209.9,172.7z"/>
<path class="st1" d="M308.8,297c-0.3,2-0.8,4.1-1.5,6.2c-0.7,1.7-1.2,3.9-3,4.5c-0.8,0.3-1.8,0.3-2.9,0.5c-1,0.2-2,0.5-2.9,0.8
	c-2,0.7-4,1.5-6,2.2c-4,1.3-8.4,2-12.6,2.3c-8.7,0.7-17.6,0-26.4,0.3c-2.1,0.1-4.3,0.3-6.4,0.5c-1.8,0.2-3.9,0.7-5.7,0.8
	c-3.4,0.5-7.2,0.7-9.9-1.8c-1.3-1.3-2.2-3.2-2.9-5c-0.8-2.1-1.5-4.2-2.2-6.4c-1.2-4.2-2.2-8.6-2.9-13.1c-0.7-1.5-1-2.7-1.3-3.9
	c-0.5-2-0.7-4-0.2-6c0.5-1.8,1.5-3.5,2.7-5c2.5-3,5.4-6,8.2-8.9c2.9-2.9,6-5.5,9.6-7.4c3.5-2,7.4-3.2,11.2-4
	c8.1-1.5,16.6-1.3,24.9-0.5c4.4,0.5,8.7,1.2,12.9,2.7c3.9,1.5,7.6,3.7,11.1,6c1.5,1,3.4,1.8,4.4,3.5c1.2,1.7,1.3,3.7,1.5,5.7
	c0.5,4.2,1,8.6,1,12.9C309.8,288.4,309.5,292.6,308.8,297z"/>
<path class="st1" d="M260.1,242.6c0,12.2-7.7,22.6-18.5,26.7c-0.2,9.1-4.5,16.9-11.1,22.1l-0.5,30.5h-116l3.4-51.5
	c-7.1-1.5-13.1-5.7-17.3-11.4c-0.7-1-1.3-2-1.8-3c-2.2-4-3.4-8.6-3.4-13.4c0-0.9,0.1-1.8,0.2-2.7c0.3-3.7,1.3-7,2.9-10.2
	c0.3-0.6,0.7-1.2,1-1.8c0.2-0.3,0.4-0.7,0.7-1c4.2-6.4,10.9-10.9,18.8-12.4c1.7,1.8,4.2,4.2,8.2,6.9c9.7,6.5,27,14.9,61.5,14.4
	c25.2-0.5,39.6-14.3,45.7-21.6C248.6,215.5,260.1,227.7,260.1,242.6z"/>
<path class="st6" d="M240.3,272.3c-1.7,7.2-6.5,13.4-11.8,19c-1.5,9.3-2.1,18.6-2,27.9c0,1.2-2,1.2-2,0c0-9.3,0.7-18.6,2-28
	c-0.3-0.3-0.3-0.8,0-1.2c3.2-3,6-6.2,8.4-9.9c1.8-3.2,3.4-6.7,3.9-10.4c0.3-3.9-0.3-7.9-1.8-11.4c-1.3-3.9-3.5-7.2-5.9-10.4
	c-0.6-0.9-1.2-1.7-1.8-2.5c-0.5-0.8-0.8-1.5-0.7-2.3c0.3-1,1-1.8,1.7-2.7c0.6-1,1.2-2,1.8-2.9c0.7-1.2,2.4-0.2,1.7,0.8
	c-0.8,1.2-1.5,2.4-2.2,3.5c-0.3,0.5-0.8,1-1,1.5c-0.2,0.5,0.2,0.7,0.5,1c1.3,1.8,2.6,3.7,3.9,5.7C239.2,256.6,242,264.3,240.3,272.3
	z"/>
<path class="st4" d="M184.4,179.7c1.1,0,2-0.9,2-2s-0.9-2-2-2c-1.1,0-2,0.9-2,2S183.3,179.7,184.4,179.7z"/>
<path class="st5" d="M297.9,208.1c0.7,14.5,1.7,27.3,3.2,38.3c1.3,11.1,4.1,27.5,8.4,49.3l-45.5,2.9c-2.4-21.6-3.8-41.7-4.2-60.4
	c-0.4-18.6-0.6-32.6-0.5-42.1L297.9,208.1z"/>
<path class="st4" d="M335.9,233.8h-88.5c-5.7,0-10.4,4.7-10.4,10.4v60.4c0,5.7,4.7,10.4,10.4,10.4h88.5c5.7,0,10.4-4.7,10.4-10.4
	v-60.4C346.3,238.4,341.6,233.8,335.9,233.8z"/>
<path class="st4" d="M329,322H202.7c-4.2,0-7.4-3.4-7.4-7.5c0-4,3.2-7.4,7.4-7.4H329c4,0,7.4,3.4,7.4,7.4
	C336.4,318.6,333,322,329,322z"/>
<path class="st5" d="M311.9,188.1c-2,1.9-3.6,2.5-4.9,1.8c-1.5,6.2-2.6,10.9-3.4,14.3c-1,4.9-3.5,9.1-7.6,11.9
	c-4.2,3-9.6,4.2-14.6,3.9c-2.9,0-5.9-0.7-8.7-1.3c-2.4-0.7-4.9-1.5-7.1-2.9c-2-1.2-3.9-2.9-4.9-5c-1-2.3-1.3-5-1.3-7.6
	c-0.2-10.7,0.2-21.5,0.7-32.2c0.3-10.1-0.7-20.1,2.4-29.7c1-3,2.4-6.5,5.4-8.4c2.4-1.3,5.9-1.3,7.7,0.8c2.4,2.7,1.3,6.5,0.8,9.6
	c-0.5,3.9-1.2,7.7-1.3,11.7c-0.3,2.8-0.4,5.6-0.3,8.6c2-2.7,10.4-2.9,13.3,0.3c2.4-2.7,10.1-2.3,12.4,1.8c1.5-1.5,3.5-2.2,6.7-1.7
	C315,165.5,318.1,182.7,311.9,188.1z"/>
<path class="st5" d="M304.6,186.6c-2.2,1.7-5,2.2-7.6,2.5c-2.4,0.2-4.6,0.2-6.9,0c0.1,0.6,0.2,1.1,0.3,1.7c-0.2,2.9-0.3,5-0.5,7.4
	c-0.2,2-0.3,3.9-1,5.7c-1.3,2.9-3.7,5-6.4,6.4c-2.9,1.7-6.4,3-9.7,2c-6.5-2-10.2-9.1-8.4-15.6c1.7-6,3.9-11.4,7.7-15.9
	c3.5-3.9,8.1-6.5,13.3-7.4c3-0.3,6-0.5,9.1-0.3c2.5,0.2,5.4,0.7,7.7,2c2,1.2,3.7,3,4.2,5.5C307,182.7,306.5,185.3,304.6,186.6z"/>
<path class="st4" d="M189.5,148.7c-0.4,3.8-1.3,7.5-2.7,11.1c-4.9,12.6-12.8,20.1-25.5,24.5c-0.2,0.3-2.9,3.4-3.5,3.5
	c-3,0.3-6-1.5-7.6-4.2c-1.5-2.7-2-6-2.2-9.2c-0.5-11.2,5.5-21.8,15.1-27.7c4.4-2.7,9.7-4.7,14.9-4.7c4.5-0.2,9.6,1.2,11.9,5.4
	C190.5,148,190,148.7,189.5,148.7z"/>
<path class="st5" d="M155.9,191.6c4.4,0,7.9-3.5,7.9-7.9s-3.5-7.9-7.9-7.9c-4.4,0-7.9,3.5-7.9,7.9S151.5,191.6,155.9,191.6z"/>
<path class="st4" d="M189.1,170.8c0.3,0.8-0.2,1.8-1,2c-1,0.3-2,0-2.9-0.2c-1-0.2-1.8-0.5-2.9-0.7c-1.8-0.2-3.7,0-5.4,0.8
	c-0.7,0.3-1.8-0.2-1.5-1c0.5-1,1-1.5,1.8-2c0.2-0.2,0.4-0.4,0.7-0.5c1.2-0.5,1.5-0.8,1.8-0.8c1.8-0.8,4-1.2,6-0.7
	c0.8,0.5,1.2,0.7,1.5,1C188.3,169.3,188.8,170,189.1,170.8z"/>
<path class="st7" d="M208.4,186.9c-5.2,0-9.4-4.2-9.4-9.6c0-5.2,4.2-9.4,9.4-9.4c5.2,0,9.4,4.2,9.4,9.4
	C217.8,182.7,213.6,186.9,208.4,186.9z M208.4,170c-4.2,0-7.6,3.4-7.6,7.4c0,4.2,3.4,7.6,7.6,7.6c4,0,7.6-3.4,7.6-7.6
	C216,173.4,212.5,170,208.4,170z"/>
<path class="st8" d="M201.4,187.3c-1,0.8-2.4-0.5-1.5-1.3c0.5-0.3,1.2-0.8,1.2-1.3c0-0.7-0.5-1.2-0.8-1.5c-1-0.8-1.7-1.7-2.2-2.9
	c-1-2-1-4.5-0.2-6.7c0.2,0.5,0.5,0.8,1,0.8c0.3,0,0.6-0.1,0.8-0.2c-1,2-0.7,4.7,0.7,6.5c0.8,1,2.2,1.7,2.5,3
	C203.2,185.3,202.4,186.4,201.4,187.3z"/>
<path class="st8" d="M200,191c-3.4,1.2-7.6,0-9.9-3c-0.3-0.3-0.3-0.8,0-1.3c0.3-0.3,1-0.3,1.3,0c2,2.3,5.2,3.4,8.1,2.3
	c0.5-0.2,1.2,0.3,1.2,0.7C200.9,190.3,200.5,190.8,200,191z"/>
<path class="st8" d="M161.9,186.8c-1.7,0.7-3.4,1.3-5,2c-0.5,0.3-1,0.2-1.3-0.3c-0.2-0.3,0-1.2,0.3-1.3c1.3-0.6,2.6-1.1,3.9-1.5
	c-0.4-0.3-0.9-0.6-1.3-0.8c-1-0.7-2-1.3-3-2c-0.5-0.2-0.5-0.8-0.3-1.2c0.3-0.5,0.8-0.7,1.3-0.5l3.2,2.2c0.6,0.3,1.1,0.7,1.7,1
	c0.5,0.3,1,0.7,1,1.3C162.4,185.9,162.2,186.6,161.9,186.8z"/>
<path class="st5" d="M223.9,214.1c-2.4,2.3-5.4,5-8.6,7c-7.6,4.7-24,12.6-55.6,6.7c-18.5-3.5-27.5-9.2-31.9-13.8H223.9z"/>
<path class="st6" d="M233.8,214.1c-6,7.4-20.5,21.1-45.7,21.6c-34.4,0.5-51.7-7.9-61.5-14.4c-4-2.7-6.5-5-8.2-6.9
	c0.9-0.1,1.8-0.2,2.7-0.3c0.8-0.1,1.6-0.2,2.4-0.2c0.8,0,1.6,0.1,2.3,0.2h2c4.4,4.5,13.4,10.2,31.9,13.8c31.6,5.9,48-2,55.6-6.7
	c3.2-2,6.2-4.7,8.6-7h5.4c0.8,0,1.5-0.2,2.4-0.2C232.3,214,233,214,233.8,214.1z"/>
<path class="st4" d="M175.3,266.6c-2.7,2-6.4,3.5-9.9,3.2c-4.7-0.7-9.6-3-11.8-7.4c-2.4-5,0-10.1,1.2-15.1c0.5-2.3,0.8-5-0.3-7.2
	c-1-2.2-3-3.4-4.9-4.9c-1.7-1.3-3.5-3-4.2-5.2c-0.8-2.7,0.5-5.2,1.3-7.7c2.2-5.4,2.2-9.2,1.3-14.9c-1.3-7,2.5-14.1,9.7-15.9
	c5.5-1.3,8.9,3.5,10.4,8.1c0.8,2.5,1.3,5.4,1.5,8.1c0,1.2,0,2.5-0.2,3.7c-0.3,1.3-1.7,2.7-1.8,3.9c-0.2,3,0.2,5.5,1.8,8.2
	c2,3.4,4.9,5.7,4.7,9.7c0,1.5-0.5,2.9-0.7,4.2c-0.2,1.2-0.3,2.5,0.7,3.4c2.2,2.3,4.5,3.7,6,6.7C183.9,254.6,181.7,262.1,175.3,266.6
	z"/>
<path class="st4" d="M224.2,260.3c-2.5,5.2-7.9,6.7-12.6,5.4c-4.5-1.3-8.7-5.5-9.9-10.9c-0.7-3.2,0-6.4,0.7-9.6
	c0.7-3,1.2-6.4-0.2-9.1c-1-1.7-2.7-2.9-4.4-3.9c-1.7-1-3.4-1.8-4.9-3.4c-1.7-1.7-2.7-4-2.7-6.7c0-1.5,0.2-3.2,0.5-4.7
	c0.3-1.8,0.7-3.6,1.2-5.5c0.2-1.2,1.8-0.8,1.8,0.3c3.4-4.7,8.2-7.2,12.8-6.9c2.4,0.2,4.9,1.2,5.9,4c1,2.9-2,5.2-0.5,7.9
	c1.7,2.7,5.7,6.2,8.1,7.7c9.4,6.7,2.4,16.8,2.5,20c0,1.7,1,2.9,1.7,4c0.7,1.2,1.2,2.3,1.3,3.7C225.9,255.2,225.4,258.1,224.2,260.3z
	"/>
<path class="st5" d="M61,241.6c-0.3,2.9-0.8,6.2-2.5,8.4c-1.8,2.3-4.9,2.5-7.6,1.8c-3.9-1-8.1-3.2-10.4-6.5
	c-3.4-5.9-3-12.9,1.3-17.4c3.5-3.5,9.2-5,13.8-2.7c2.7,1.3,3.7,4.7,4.5,7.4C61,235.6,61.2,238.6,61,241.6z"/>
<path class="st5" d="M98.8,239.5c-0.2,2.2-0.5,4.5-1.5,6.5c-0.8,1.7-2.2,3.2-3.9,4.2c-1,0.7-2.1,1.1-3.4,1.3c1.7,1,0.7,2.7-0.3,2
	c-1.1-0.6-2.2-1.1-3.4-1.7c-1.7-0.2-3.4-0.8-4.7-1.7c-0.8-0.5-0.5-1.3,0-1.7c-1.2-1.3-1.7-3-2.2-5c-0.5-2.7-1.2-5.4-0.8-8.2
	c0.3-2.5,1.5-4.9,1.7-7.5c0.7-8.6-7.2-18-1.2-26.2c2.2-2.7,7.1-5,9.7-1.7c1.3,1.7,1.8,4,2.4,6c0.5,2.2,0.7,4.5,1.2,6.7
	c0.3,2.3,0.8,4.5,1.5,6.7c0.7,2.3,2,4.4,2.9,6.7C98.6,230.2,99.1,234.9,98.8,239.5z"/>
<path class="st1" d="M132.5,249.4c-5.7,33.3-9.6,55.6-11.6,66.9c-0.7,3.5-1,5.7-1,5.7H76.8c1.7-5.9,4-15.7,6.9-29.4
	c1.6-7,3.3-15.4,5.2-25.2c2.5-12.8,4.5-21.5,6.2-27.5c1.2-4.7,2.2-7.7,2.9-9.7c0.4-1,0.8-1.8,1-2.3c0.3-0.7,0.5-1,0.7-1
	C99.6,226.9,110.6,234.4,132.5,249.4z"/>
<path class="st5" d="M97.9,296.8l-41.8-12.6c1.5-6.7,3.2-13.1,4.5-18.5c-2.4-1.5-4.7-2.9-7.1-4.4c-0.4-0.2-0.8-0.4-1.2-0.5
	c-1.7-0.4-3.4-0.9-5.2-1.3c-3.7-1-7.4-2-11.1-3c-6.4-1.8-12.9-4-19.1-6.5c-1.3-0.5-2.7-1-3.5-2.2c-0.8-1-1.2-2.2-1-3.5
	c0.2-2.7,2.4-4.7,4.9-5.7c3-1.2,6.2-1.2,9.2-0.5c3.2,0.7,6.4,1.8,9.6,2.7c3.7,1.2,7.6,2.5,11.1,4c0.1-0.7,0.2-1.3,0.3-1.8
	c0.3-3.2,1-6.2,1.3-9.4c0.5-2.9,1-5.9,1.8-8.7c1.5-4.7,4.5-9.9,9.4-11.4c5.5-1.8,10.7,1.7,15.3,4.7c4.7,3,9.2,6,13.4,9.6
	c0.7,0.6,1.3,1.1,2,1.7c1.6-1.3,2.9-2.5,4-3.4c2.2-0.9,3.5,4.9,3.9,17.4C99.3,254.2,98.4,278.2,97.9,296.8z"/>
<path class="st8" d="M87.2,251.4c-7.4-6.7-18.6-5-27.9-6c-1.2-0.2-1.2-2.2,0-2c9.9,1,21.3-0.5,29.2,6.7
	C89.5,250.9,88.2,252.2,87.2,251.4z"/>
<path class="st8" d="M75.6,232.1c-0.2-0.5,0.5-1,0.8-1c0.7,0,1,0.5,1,1c0.5,4.4,1.7,9.2,5.9,11.4c1,0.5,0,2.2-1,1.7
	C77.5,242.6,76.1,237.1,75.6,232.1z"/>
<path class="st9" d="M91.6,205.4c0,5.9-5.2,10.6-11.4,10.6v1.5c0,5.7-5,10.2-11.2,10.2H53.8c-6,0-11.1-4.5-11.1-10.2v-30h37.4
	c0,4.8,0,7.2,0,7.2C86.4,194.7,91.6,199.4,91.6,205.4z M86.9,205.4c0-3.5-3-6.4-6.7-6.4c0,8.4,0,12.6,0,12.6
	C83.8,211.6,86.9,208.8,86.9,205.4z"/>
<path class="st1" d="M80.1,206.2c-1.2,0.8-2.5,1.7-4,1.8c-1.3,0-2.5-0.5-3.4-1.5c-0.7-0.7-1.2-1.5-2.2-2c-1.2-0.3-2.4,0.5-3.2,1.2
	c-1.7,1.5-3.5,3.7-6,3.4c-1.2-0.2-2-1-2.7-1.8c-0.7-0.7-1.3-1.7-2.2-2c-1.7-0.7-3.7,0.2-4.4,1.8c-0.5,1-2.2,0.2-1.7-1
	c0.8-2,3.4-3.2,5.5-2.9c1,0.1,1.9,0.5,2.7,1.2c0.8,0.7,1.3,1.8,2.2,2.3c2.2,1.5,4.7-2,6-3c1-0.7,2.2-1.3,3.5-1.2
	c1.2,0.2,2,0.8,2.9,1.7c0.7,0.7,1.2,1.7,2.4,1.8c1.2,0.2,2.5-0.8,3.5-1.5C80.1,203.7,81.1,205.4,80.1,206.2z"/>
<path class="st1" d="M117.6,171.2c-1.2,1.7-3,2.2-5,1.7c-1.7-0.3-3.4-1.8-3.7-4.9c0.2-1.2,0.7-2.2,1.5-3c0.7-0.7,1.7-1.2,2.7-1.3
	c1.8-0.3,3.9,0.5,4.7,2.3C118.6,167.5,118.6,169.7,117.6,171.2z"/>
<path class="st10" d="M73.8,142.5c-1,1.3-2.9,2-4.5,1.5c-1-0.5-1.8-1.2-2.9-2.3c-0.2-0.3-0.3-0.8-0.3-1.5c-0.2-0.5,0-0.8,0.5-1.2
	c0.5-0.8,1.5-1.7,2.7-1.8c1.3-0.3,3-0.2,4.2,0.8C74.8,139.1,74.8,141,73.8,142.5z M70.9,138.8c-0.3,0-0.5,0,1.7,1.7
	C72.6,140.5,72.6,140.3,70.9,138.8z"/>
<path class="st5" d="M56.3,234.4c-0.8,1-2,1.7-3.2,2.3c-1.5,0.7-3,1.3-4.5,1.8c-1.2,0.7-2.5,1.2-3.5,2c-0.3,0.3-0.8,0.8-0.8,1.3
	c0,0.7,0.2,1.2,0.2,1.8c0.2,1.5-0.8,2-2,2.3c0,0.7-1,1.2-1.7,0.7c-0.3-0.3-0.7-0.6-1-0.8c-0.6-0.1-1-0.2-1.3-0.3
	c-2.4-1-4.2-3-4.9-5.4c0-0.4,0.1-0.8,0.3-1c-1.3-2.7-1.3-5.9,0.2-8.4c-1.2-2.2-2.4-4.5-2.5-7c-0.2-1.7-0.2-3.2,0.5-4.7
	c-3.2-3.4-3.9-8.4-1.8-12.4c2-3.9,5.9-6.2,9.7-7.7c3.9-1.3,9.9-2.3,12.3,2.3c1.8,3.4,0.2,7.2-2.5,9.6c3.2,0.7,6,2.7,6.4,6.2
	c0.2,2-0.5,4-1.8,5.5c-0.7,0.7-1.3,1.2-2.2,1.5c1.7,0.5,3.2,1.5,4.2,2.9C57.8,229.2,58.1,232.4,56.3,234.4z"/>
<path class="st8" d="M56,236.1c-2.5,2-5.7,3.4-8.9,4.2c-1.2,0.3-1.7-1.5-0.5-1.8c1.6-0.4,3.1-1,4.5-1.7c1.3-0.7,2.7-1.3,3.9-2.3
	c1.8-1.7,1.8-4.4,0.3-6.2c-1.7-2-4.2-2.7-6.5-2.7c-2.7,0-5.4,0.7-7.9,1.7c-2.2,0.8-4.2,2-5.5,3.9c-0.7,1-2.4,0.2-1.7-0.8
	c1.8-2.7,4.7-4.2,7.7-5.2c3-1.2,6.5-1.8,9.7-1.2c2.7,0.3,5.5,2,6.5,4.7C58.8,231.2,58.3,234.3,56,236.1z"/>
<path class="st8" d="M47.1,244.2c-3.4,0.5-6.5-0.2-9.7-1c-5.2-1.7-10.2-4.2-16-4c-2.4,0.2-4.9,0.8-6.7,2.5c-1.5,1.7-2.4,4.5,0,5.9
	c1,0.5,0.2,2.2-1,1.7c-2.7-1.5-3-5.4-1.3-7.7c3.5-4.9,10.2-4.9,15.4-3.5c6.2,1.5,12.3,5.2,18.8,4.4C47.7,242.1,48.2,244,47.1,244.2z
	"/>
<path class="st8" d="M52.8,243.5c0,0.5-0.5,1-1,1c-2,0-4.1-0.1-6.2-0.3c-0.5,0-0.8-0.3-0.8-1c-0.2-0.5,0.3-1,0.8-1
	c2.1,0.3,4.2,0.4,6.2,0.3C52.3,242.5,52.8,243,52.8,243.5z"/>
<path class="st8" d="M56.3,238.3c-0.2,0.2-0.3,0.5-0.7,0.5c-0.2,0-0.5,0-0.8-0.2s-0.7-0.2-1.5-0.3c-0.7,0-1-0.5-1-1
	c0-0.2,0.2-0.5,0.3-0.7c0.1-0.2,0.3-0.3,0.7-0.3c0.9,0,1.8,0.2,2.7,0.7c0.2,0.2,0.3,0.3,0.3,0.7C56.5,237.8,56.5,238.1,56.3,238.3z"
	/>
<path class="st8" d="M57.3,218.5c-0.2,2.7-1.7,5.2-4,6.4c-1.2,0.7-2.2-1-1-1.7c2.2-1.2,3.5-3.5,3.2-6c-0.5-2.2-2-4-4.2-4.5
	c-2.4-0.8-5-0.2-7.2,0.5c-4.4,1.2-8.9,3-11.4,6.9c-0.7,1-2.5,0-1.7-1c1.7-2.5,4.2-4.5,6.9-5.7c2.5-1.3,5.4-2.2,8.1-2.7
	c2.9-0.5,5.9-0.5,8.2,1.2C56.3,213.3,57.6,216,57.3,218.5z"/>
<path class="st8" d="M50.3,211.8c-1.2,0.7-2-1-1-1.7c2.2-1.5,2.7-4.2,2-6.7c-0.3-1.2-1-2.2-1.7-3.2c-0.8-1-1.8-1.2-3.2-1.3
	c-2.5,0-5,0.2-7.6,1c-4.2,1.3-8.1,4.7-8.4,9.4c-0.2,1.3-2.2,1.3-2,0c0.2-3,1.7-5.9,4-8.1c2.2-1.8,4.9-3.2,7.9-3.7
	c1.5-0.3,3-0.5,4.5-0.5c1.3-0.2,3-0.2,4.4,0.5c1.3,0.7,2.2,1.8,2.9,3.2c0.8,1.2,1.3,2.7,1.3,4.2C53.8,207.6,52.4,210.3,50.3,211.8z"
	/>
<path class="st1" d="M97.9,296.8c-0.3,9.4-0.7,17.8-1,25.2H59.2c-6.2,0-10.7-5.7-9.2-11.7c1.7-7.2,3.9-16.8,6.2-26l27.5,8.4
	l14.1,4.2H97.9z"/>
<path class="st8" d="M305.3,183.4c-0.3,2.7-2.2,4.7-4.4,5.7c-2.7,1.5-5.7,1.7-8.6,2.3c-0.7,0.2-1.7,0.2-1.8,1c-0.2,0.5,0,1.3-0.2,2
	c-0.1,1.5-0.3,3-0.7,4.5c-1.3,5.2-4.5,10.2-9.9,11.7c-1.2,0.3-1.7-1.5-0.5-1.8c5.7-1.7,8.2-7.7,9.1-13.1c0.2-1.3,0-2.9,0.3-4
	c0.3-1.3,1.5-1.7,2.7-2c2.7-0.7,5.4-0.8,7.9-2c2.2-0.8,4-2.5,4.2-4.9c0.2-1-0.2-2.2-0.8-2.9c-0.8-0.8-2.2-1-3.2-1.2
	c-2.9-0.3-5.9-0.5-8.7-0.5c-2.9-0.2-5.9-0.5-8.6,0.5c-2.5,0.7-4.4,2.9-6,4.9c-1.9,2.1-3.6,4.4-5.2,6.9c-0.7,1-2.4,0-1.7-1
	c1.9-3,4.1-5.9,6.5-8.6c2.2-2.3,4.7-4.2,8.1-4.5c3-0.5,6.4-0.2,9.6,0c1.7,0.1,3.3,0.2,4.9,0.3c1.3,0,2.7,0.2,3.9,0.7
	C304.6,178.6,305.6,180.9,305.3,183.4z"/>
<path class="st8" d="M279.6,179.2c-0.3,0.3-1,0.3-1.3,0c-0.5-0.3-0.3-1-0.3-4.9c-0.3-0.1-0.7-0.3-1-0.5c-0.7-0.3-1.3-0.7-1.8-1.3
	c-0.3-0.3-0.3-1,0-1.3c0.3-0.3,1-0.5,1.3,0c0.3,0.3,0.5,0.5,1,0.7c0.3,0.2,0.7,0.4,1,0.7c0.7,0.3,1.3,1,1.8,1.8
	C281,175.9,280.8,177.9,279.6,179.2z"/>
<path class="st8" d="M293.2,177.5c-0.5,1.2-2.4,0.7-2-0.5c1.7-4.4,0.2-9.7-3.9-12.2c-1-0.7,0-2.3,1-1.7
	C293.1,166.1,295.1,172.3,293.2,177.5z"/>
<path class="st8" d="M303.1,178.7c-0.7,1.2-2.3,0.2-1.7-1c2.2-3.5,1.5-8.6-1.7-11.4c-0.8-1,0.5-2.3,1.5-1.5
	C305,168.5,305.6,174.4,303.1,178.7z"/>
<path class="st8" d="M310.2,190.6c-1.7,1-3.7,1-5.4,0.2c-1.5-0.8-2.5-2.3-2.7-4.2c0-0.5,0.5-0.8,1-0.8c0.5,0,0.8,0.3,1.5,2.3
	c0.2,0.2,0.3,0.3,1.2,1c0.5,0.3,1,0.3,3.4-0.2c0.5-0.3,1-0.2,1.3,0.3C310.9,189.8,310.5,190.3,310.2,190.6z"/>
<path class="st6" d="M277.4,145c-0.8,3.4-1.4,6.8-1.8,10.4c-0.9,7-1.2,14.1-1,21.1c0,1.2-1.8,1.2-2,0c0-3.7,0.1-7.4,0.2-11.1
	c0.3-6.5,1.1-12.9,2.4-19.3c0.7-3,1.7-6.2,0.7-9.2c-0.7-2.2-2.9-4.2-5.2-3.7c-1.3,0.3-1.8-1.7-0.5-1.8c2.9-0.7,5.9,1.2,7.1,3.9
	C278.6,138.3,278.1,141.8,277.4,145z"/>
<path class="st8" d="M307.5,191.6c-0.7,5.4-1.3,10.9-3.4,16.1c-1.8,4.4-4.9,8.4-9.9,9.1c-1.3,0-1.3-1.8,0-2c4.4-0.5,7.1-4.9,8.4-8.7
	c1.7-4.5,2.4-9.6,3-14.4C305.6,190.3,307.7,190.3,307.5,191.6z"/>
<path class="st8" d="M185.1,207.6l-0.2,2c-2-0.2-4-0.7-5.9-1.3c-1.3-0.4-2.6-1-3.9-1.7c-1.2-0.7-2.5-1.3-2.9-2.7
	c-0.5-1.2,1.5-1.7,1.8-0.5c0.2,0.5,0.8,0.8,1.2,1c0.4,0.3,1,0.6,1.5,0.8c1.1,0.6,2.2,1,3.4,1.3C181.9,207.1,183.5,207.5,185.1,207.6
	z"/>
<path class="st11" d="M77.3,168c-2.4,2.3-5.4,3.5-8.2,5.2c-1.2,0.8-2.4,1.7-3,3c-0.7,1.3,0,3.2-1,4.5c-1.3,2.3-4.7,2.7-6.9,1.3
	c-2.4-1.7-3-4.7-2.9-7.9c-0.8-1.3-2.4-2.3-3.2-3.9c-0.8-1.5-0.8-3.2,0.2-4.7c1.2-1.3,2.9-2,4.5-2.7c1.7-0.5,3.4-1.2,4-2.9
	c1-2.9,0-6.4,2.9-8.4c2.7-2.2,6.9-1.5,9.7-0.3c3.4,1.3,6,4,6.7,7.6C81,162.3,79.6,165.5,77.3,168z M77.3,156.9
	c-1.5-2.7-4.5-4.2-7.7-4.5c-1.3-0.2-2.9-0.2-4.2,0.5c-1.2,0.7-1.7,1.8-2,3.2c-0.3,2.5-0.2,5.4-2.5,7.2c-1.2,0.8-2.5,1.3-3.9,1.7
	c-1.2,0.5-2.7,1-3.4,2.2c-0.5,1.2,0.2,2.2,0.8,3c0.7,1,1.5,1.8,2.2,2.7c0.7,0,1.3,0.5,1,1.2c-0.7,2.5-0.3,6.4,2.9,6.9
	c1,0.2,2.4-0.2,2.9-1.2c0.5-0.7,0.3-1.5,0.5-2.3c0-0.8,0.2-1.5,0.5-2.2c1.2-2.3,3.7-3.7,5.9-4.9c2.5-1.2,5.2-2.7,6.7-5
	C78.8,162.6,79,159.6,77.3,156.9z"/>
<path class="st11" d="M89.4,171.7c-1.3,1.3-3.2,2.5-5.2,2c-1-0.3-1.7-1-2.2-1.8c-0.3-0.8-0.3-2,0.7-3.2c0.2-1.8,1.5-3.4,3-4
	c1.8-0.7,4.2-0.5,5.2,1.3C91.9,168,90.7,170.2,89.4,171.7z M88.9,166.6c-0.3-0.5-1-0.5-3,0.2c-0.8,0.5-1.3,1.5-1.3,2.7
	c0,0.5-0.3,0.8,0,2.2c0.3,0.2,0.5,0.2,0.8,0.2c0.7,0,1.3-0.3,1.8-0.8c0.3-0.3,0.8-0.8,1.3-1.3c0.2-0.3,0.3-0.7,0.8-1.7
	C89.4,167.6,89.4,167.5,88.9,166.6z"/>
<path class="st11" d="M98.8,150.7c-3.7,2-8.2,3.2-11.9,0.7c-3.2-2.3-4.2-7-1.5-10.6c2.4-3.4,5.7-6.2,10.1-6c4,0.3,8.4,2.7,9.2,6.9
	C105.3,145.8,102.1,148.9,98.8,150.7z M102.1,140.6c-1.5-3-5.7-4.5-8.9-3.7c-3,0.7-5.2,3.2-7.1,6.2c-1.3,2.9,0.2,6.2,3.2,7.4
	c3.2,1.2,6.9-0.5,9.7-2.2C101.8,146.7,103.8,143.8,102.1,140.6z"/>
<path class="st12" d="M302.1,287.3c4.8,0,8.7-3.9,8.7-8.7c0-4.8-3.9-8.7-8.7-8.7c-4.8,0-8.7,3.9-8.7,8.7
	C293.4,283.4,297.3,287.3,302.1,287.3z"/>
<path class="st4" d="M227.6,257.7c-0.7,2.2-2,4.2-3.9,5.5c-1.8,1.2-4.2,1.7-6.4,1c-1.2-0.3-0.7-2.3,0.7-1.8c2.4,0.8,4.9-0.5,6.2-2.3
	c1.5-2,2.2-4.9,2-7.4c-0.2-1-0.3-2.2-1.2-3c-0.7-0.8-1.7-1.3-2.2-2.5c-1.2-2-0.8-4.4-0.2-6.4c0.8-2.3,2-4.5,2.5-6.9
	c0.3-2.2,0.2-4.5-0.7-6.4c-2.2-4.4-7.4-5.5-10.7-8.6c-1.5-1.3-2.7-3.4-2.7-5.4c-0.2-2,0.5-3.9,2.2-5c1-0.8,2,0.8,1,1.7
	c-1.8,1.3-1.5,4.2-0.5,5.9c1.5,2.2,4,3.4,6.2,4.7c2,1.2,4,2.5,5.5,4.5c1.2,1.8,1.7,4,1.8,6.2c0,2.3-0.7,4.7-1.5,6.9
	c-1,2.2-2.4,4.5-1.7,6.9c0.3,1.3,1.2,1.8,2,2.7c0.8,0.8,1.3,1.8,1.7,2.9C228.4,253,228.1,255.6,227.6,257.7z"/>
<path class="st4" d="M180.7,265.6c-3.9,3.5-10.2,5-14.4,1.2c-1-0.8,0.5-2.2,1.3-1.3c2.2,2,5.4,2,7.9,1c2.7-0.8,5-2.9,6.4-5.4
	c2.7-4.9,1.2-10.7-2.7-14.4c-1.8-1.8-4-3.5-4.5-6c-0.5-2.7,0.5-5.2,1.2-7.7c0.3-1.2,0.5-2.5,0.2-3.7c-0.3-1.3-1.2-2.3-2-3.2
	c-1.8-1.8-3.9-3.4-5.4-5.5c-2.7-4.5-3.4-10.2-1.3-15.1c0.3-1.2,2.2-0.7,1.8,0.5c-2.4,5.9-0.7,12.4,4,16.8c1.8,1.7,4.2,3.5,4.9,6.2
	c0.7,2.7-0.7,5.4-1.3,8.1c-0.2,1.3-0.3,2.7,0,4c0.5,1.2,1.5,2,2.4,3c1,0.8,2.2,1.7,3,2.9c0.9,1.1,1.6,2.3,2.2,3.7
	C186.3,255.7,184.9,261.8,180.7,265.6z"/>
<path class="st6" d="M100.1,259.1c0,9.3-0.1,18.6-0.2,27.9c-0.2,11.6-0.6,23.3-1.2,35.1h-1.8c0.2-6.4,0.4-12.7,0.7-19
	c0-2.1,0.1-4.2,0.2-6.2c0.2-10.3,0.4-20.6,0.5-31c0-3.2,0-6.5,0-9.7c0-8.6-0.1-17.2-0.3-25.8c0-0.8,0-1.2,0-1.5c0-0.7,0.5-0.8,1-0.8
	c0.5,0,0.8,0.3,1,0.8c0.1,7,0.2,14,0.2,21C100.1,252.8,100.1,256,100.1,259.1z"/>
<path class="st6" d="M133.7,276.4c-1.1,3.9-2.2,7.8-3.4,11.7c-3.1,11.2-6,22.5-8.7,33.9h-2c0.3-1.3,0.7-2.7,1-4
	c0.1-0.6,0.2-1.1,0.3-1.5c3.2-13.6,6.9-27.2,10.9-40.6C132.2,274.7,134,275.2,133.7,276.4z"/>
<path class="st6" d="M158.7,197.3c2,0,3.7-1.7,3.7-3.7s-1.7-3.7-3.7-3.7c-2,0-3.7,1.7-3.7,3.7S156.7,197.3,158.7,197.3z"/>
<path class="st7" d="M185.9,188.4c-5.2,0-9.4-4.2-9.4-9.4c0-5.2,4.2-9.6,9.4-9.6s9.6,4.4,9.6,9.6
	C195.5,184.3,191.1,188.4,185.9,188.4z M185.9,171.5c-4,0-7.4,3.4-7.4,7.5c0,4,3.4,7.4,7.4,7.4c4.2,0,7.6-3.4,7.6-7.4
	C193.5,174.9,190.1,171.5,185.9,171.5z"/>
<path class="st6" d="M201.5,178.9c-0.2,0.5-0.8,0.7-3.5-0.2c-0.3,0.2-0.5,0.2-2.2,1.3c-0.2,0.5-0.8,0.7-1.3,0.3
	c-0.3-0.2-0.5-0.8-0.3-1.3c1.5-2.2,4.9-3,7.1-1.5C201.7,177.9,201.9,178.4,201.5,178.9z"/>
<path class="st6" d="M194.5,125.5c-0.7,0.6-1.4,0.9-2.2,1c-0.7,0-1.5-0.3-2-0.7c-1.3-0.8-2.2-2.5-1.3-4.9c0.8-1.5,2.5-2,4-1.7
	c1.3,0.2,2.5,1.2,2.7,2.5C196,123.2,195.5,124.7,194.5,125.5z"/>
<path class="st7" d="M296.9,119.8c-0.5,1.3-1.8,2.2-3.2,2.3c-0.8,0.2-1.5,0-2-0.5c-0.3-0.2-0.5-0.3-0.7-1.7c-0.7,0-1-0.5-1-1
	c-0.2-1.5,1-2.9,2.4-3.4c1.2-0.5,2.5-0.5,3.5,0.2c0.7,0.5,1.2,1.2,1.3,1.8C297.4,118.5,297.2,119.2,296.9,119.8z M292.9,118.3
	c0,0.7,0.2,1.3,2.5,0.3C295.4,118.5,295.4,118.5,292.9,118.3z"/>
<path class="st6" d="M237,308.4c-0.7,0-1.3-0.7-1.3-1.3v-58.9c0-3.7-0.2-14.8,8.7-15.3c8.2-0.3,88.2-0.3,91.5-0.3
	c0.8,0,1.3,0.5,1.3,1.2c0,0.8-0.5,1.3-1.3,1.3c-0.7,0-83.3,0-91.3,0.5c-5.7,0.2-6.4,7.2-6.2,12.6c0,0.4,0,20.1,0,58.9
	C238.3,307.7,237.6,308.4,237,308.4z"/>
</svg>
