<svg width="335" height="252" viewBox="0 0 335 252" fill="none" xmlns="http://www.w3.org/2000/svg">
<path fill-rule="evenodd" clip-rule="evenodd" d="M320.056 146.636C318.937 146.748 317.761 146.804 316.53 146.804C315.858 146.916 315.242 146.916 314.683 146.804C314.179 146.804 313.507 146.636 313.172 146.301C312.668 145.797 312.668 144.959 313.004 144.288C313.227 143.728 313.507 143.225 313.843 142.778C314.403 141.659 314.962 140.541 315.522 139.422C315.69 139.086 316.026 138.919 316.362 138.919C316.53 138.751 316.866 138.415 317.034 138.415C317.537 138.248 318.041 138.583 318.209 139.086C319.104 141.212 320.056 143.225 321.063 145.126C321.399 145.965 320.896 146.636 320.056 146.636ZM317.034 144.959C317.593 144.959 318.153 144.903 318.713 144.791C318.041 143.561 317.425 142.274 316.866 140.932C316.53 141.715 316.138 142.498 315.69 143.281C315.522 143.616 315.186 144.12 315.522 144.959C315.97 144.959 316.474 144.959 317.034 144.959Z" fill="#F66957"/>
<path d="M227.706 89.4247L249.702 0C265.149 3.69108 279.254 11.4087 290.84 22.1464C302.258 33.0518 310.821 46.6418 315.69 61.7416L227.706 89.4247Z" fill="#19C5FF"/>
<path d="M216.791 100.33L304.776 72.647C307.631 81.5391 308.974 90.9346 308.974 100.33C308.974 150.831 267.332 192.271 216.791 192.271C166.25 192.271 124.776 150.831 124.776 100.33C124.776 96.9745 124.944 93.619 125.28 90.2635L216.791 100.33Z" fill="#F66957"/>
<path d="M216.791 100.33L125.448 88.9215C131.157 43.1186 170.616 8.22107 216.791 8.22107C224.011 8.22107 231.063 9.05999 237.948 10.57L216.791 100.33Z" fill="#FFBB4D"/>
<path d="M221.325 161.904C219.142 161.569 217.463 159.891 216.455 158.045C215.28 155.529 215.448 153.012 215.784 150.328C216.623 145.965 218.47 140.932 215.28 137.241C213.265 134.557 210.075 133.047 207.556 131.033C206.381 129.859 205.373 128.684 204.702 127.342C203.694 125.161 203.862 122.98 204.366 120.799C205.205 115.933 207.388 111.068 206.381 106.035C206.213 104.86 208.06 104.357 208.396 105.531C209.403 111.068 207.052 116.269 206.045 121.47C205.709 123.483 205.709 125.497 206.885 127.342C207.724 128.517 208.9 129.523 209.907 130.362C212.594 132.375 215.616 134.053 217.463 136.738C220.15 140.597 218.806 145.294 217.967 149.489C217.463 151.838 217.127 154.354 217.967 156.535C218.638 158.381 219.982 159.723 221.829 160.059C223.172 160.226 222.668 162.072 221.325 161.904Z" fill="#36174D"/>
<path d="M220.821 186.232C216.623 189.923 211.25 191.768 205.877 192.943C192.948 195.795 179.515 195.124 166.754 192.104C155.336 189.419 143.918 185.896 133.34 180.863C128.302 178.346 123.265 175.494 118.731 172.138C116.381 170.461 114.198 168.671 112.183 166.77C111.064 165.763 110.056 164.756 109.161 163.75C108.321 162.911 107.313 161.904 106.978 160.73C102.78 157.877 100.597 152.676 101.94 147.643C102.612 145.126 104.123 142.61 106.306 141.1C108.153 139.59 110.672 138.919 112.351 137.241C113.246 136.346 113.638 135.284 113.526 134.053C113.358 132.543 112.855 131.033 112.855 129.523C113.19 126.839 114.534 124.322 116.548 122.477C118.395 120.463 120.914 119.289 123.433 118.114C125.784 117.108 128.47 116.101 130.317 114.088C132.332 111.907 132.5 109.055 132.5 106.202C132.5 93.7869 137.201 81.3715 148.451 74.6604C154.496 71.1371 161.885 69.7948 168.937 70.8015C176.157 71.9759 183.545 72.8149 190.429 76.0026C195.131 78.3515 199.328 81.5392 202.351 85.7336C205.205 89.7602 207.052 94.2902 207.892 98.988C208.731 103.853 208.564 108.719 207.052 113.417C206.381 116.101 205.037 118.45 203.862 120.799C202.686 123.316 201.847 126 202.855 128.684C204.198 132.208 208.06 134.221 211.082 136.234C212.593 137.409 214.273 138.751 215.448 140.261C216.791 142.106 217.463 144.12 217.463 146.469C217.463 151.334 214.44 157.206 218.302 161.233C220.149 163.078 222.5 164.253 224.011 166.266C225.522 168.28 226.362 170.461 226.53 172.977C226.866 178.011 224.515 182.876 220.821 186.232Z" fill="#36174D"/>
<path d="M168.937 134.389C184.702 134.389 197.482 121.619 197.482 105.867C197.482 90.1145 184.702 77.3448 168.937 77.3448C153.172 77.3448 140.392 90.1145 140.392 105.867C140.392 121.619 153.172 134.389 168.937 134.389Z" fill="#F6B399"/>
<path d="M174.645 130.027L173.806 137.577L173.638 139.59L172.463 149.321L156.175 150.16L158.358 130.865L174.645 130.027Z" fill="#F6B399"/>
<path d="M199.328 112.075C199.328 127.174 189.758 137.577 174.646 137.577C159.534 137.577 144.59 127.174 144.59 112.075C144.59 96.9746 156.847 84.727 171.959 84.727C187.071 84.727 199.328 96.9746 199.328 112.075Z" fill="#F6B399"/>
<path d="M191.269 110.061C192.382 110.061 193.284 109.16 193.284 108.048C193.284 106.936 192.382 106.034 191.269 106.034C190.156 106.034 189.254 106.936 189.254 108.048C189.254 109.16 190.156 110.061 191.269 110.061Z" fill="#36174D"/>
<path d="M198.657 102.679C198.153 103.686 196.81 103.35 195.802 103.35C194.795 103.35 193.787 103.294 192.78 103.182C191.94 103.182 190.933 103.182 190.093 103.518C189.422 103.686 189.086 104.021 188.414 104.189C188.19 104.301 187.91 104.357 187.575 104.357C187.071 104.357 186.735 104.021 186.567 103.518C186.399 103.182 186.399 102.847 186.567 102.511C187.575 100.833 189.086 99.659 190.933 98.9879C192.444 98.3168 194.459 97.9812 196.138 98.6523C196.922 98.9879 197.593 99.5471 198.153 100.33C198.657 100.833 199.161 102.008 198.657 102.679Z" fill="#36174D"/>
<path d="M297.556 227.001C297.22 229.015 296.717 231.084 296.045 233.209C295.373 234.887 294.87 237.068 293.023 237.739C292.183 238.074 291.176 238.074 290.168 238.242C289.161 238.466 288.209 238.746 287.314 239.081C285.299 239.752 283.284 240.591 281.269 241.262C277.239 242.604 272.873 243.275 268.676 243.611C259.944 244.282 251.045 243.611 242.314 243.947C240.187 244.058 238.06 244.226 235.933 244.45C234.086 244.618 232.071 245.121 230.224 245.289C226.866 245.792 223.004 245.96 220.317 243.443C218.974 242.101 218.135 240.256 217.463 238.41C216.679 236.285 215.952 234.16 215.28 232.034C214.049 227.784 213.097 223.422 212.426 218.948C211.754 217.438 211.418 216.263 211.082 215.089C210.579 213.076 210.411 211.062 210.915 209.049C211.418 207.204 212.426 205.526 213.601 204.016C216.12 200.996 218.974 197.976 221.829 195.124C224.683 192.272 227.873 189.587 231.4 187.742C234.926 185.728 238.788 184.554 242.649 183.715C250.709 182.205 259.273 182.373 267.5 183.212C271.866 183.715 276.232 184.386 280.429 185.896C284.291 187.406 287.985 189.587 291.512 191.936C293.023 192.943 294.87 193.782 295.877 195.459C297.052 197.137 297.221 199.15 297.388 201.164C297.892 205.358 298.396 209.72 298.396 214.082C298.564 218.445 298.228 222.639 297.556 227.001Z" fill="#19C5FF"/>
<path d="M248.862 172.642C248.862 184.89 241.138 195.292 230.392 199.318C230.224 208.378 225.858 216.264 219.31 221.465L218.806 252H102.78L106.138 200.493C99.0858 198.983 93.0409 194.788 88.8432 189.084C88.1715 188.077 87.5561 187.071 86.9964 186.064C84.8136 182.037 83.6382 177.507 83.6382 172.642C83.6382 171.747 83.6939 170.852 83.8058 169.957C84.1417 166.266 85.1495 162.911 86.6607 159.723C86.9965 159.164 87.332 158.549 87.6679 157.878C87.8917 157.542 88.1159 157.206 88.3398 156.871C92.5375 150.495 99.2538 145.965 107.146 144.455C108.825 146.301 111.343 148.65 115.373 151.334C125.112 157.878 142.407 166.266 176.828 165.763C202.015 165.26 216.455 151.502 222.5 144.12C237.276 145.462 248.862 157.71 248.862 172.642Z" fill="#19C5FF"/>
<path d="M229.049 202.338C227.369 209.552 222.5 215.76 217.295 221.297C215.84 230.58 215.168 239.864 215.28 249.148C215.28 250.322 213.265 250.322 213.265 249.148C213.265 239.864 213.937 230.525 215.28 221.129C214.944 220.793 214.944 220.29 215.28 219.955C218.47 216.935 221.325 213.747 223.675 210.056C225.523 206.868 227.034 203.345 227.538 199.654C227.873 195.795 227.202 191.768 225.69 188.245C224.347 184.386 222.164 181.031 219.813 177.843C219.254 176.948 218.638 176.109 217.967 175.326C217.463 174.487 217.127 173.816 217.295 172.977C217.631 171.971 218.302 171.132 218.974 170.293C219.534 169.286 220.149 168.335 220.821 167.441C221.493 166.266 223.172 167.273 222.5 168.28C221.717 169.51 220.989 170.684 220.317 171.803C219.981 172.306 219.478 172.809 219.31 173.313C219.142 173.816 219.478 173.984 219.813 174.319C221.157 176.109 222.444 178.011 223.675 180.024C227.873 186.567 230.728 194.285 229.049 202.338Z" fill="white"/>
<path d="M173.134 109.726C174.247 109.726 175.149 108.824 175.149 107.712C175.149 106.6 174.247 105.699 173.134 105.699C172.022 105.699 171.119 106.6 171.119 107.712C171.119 108.824 172.022 109.726 173.134 109.726Z" fill="#36174D"/>
<path d="M286.642 138.08C287.313 152.62 288.377 165.371 289.832 176.333C291.176 187.406 293.974 203.848 298.228 225.659L252.724 228.511C250.373 206.924 248.974 186.791 248.526 168.112C248.078 149.544 247.91 135.507 248.022 126L286.642 138.08Z" fill="#F6B399"/>
<path d="M324.59 163.75H236.101C230.352 163.75 225.69 168.407 225.69 174.152V234.551C225.69 240.296 230.352 244.953 236.101 244.953H324.59C330.339 244.953 335 240.296 335 234.551V174.152C335 168.407 330.339 163.75 324.59 163.75Z" fill="#36174D"/>
<path d="M317.705 252H191.437C187.239 252 184.049 248.644 184.049 244.45C184.049 240.423 187.239 237.068 191.437 237.068H317.705C321.735 237.068 325.094 240.423 325.094 244.45C325.094 248.644 321.735 252 317.705 252Z" fill="#36174D"/>
<path d="M300.578 118.115C298.563 120.016 296.94 120.631 295.709 119.96C294.254 126.112 293.134 130.866 292.351 134.221C291.343 139.087 288.825 143.281 284.795 146.133C280.597 149.153 275.223 150.328 270.186 149.992C267.332 149.992 264.309 149.321 261.455 148.65C259.104 147.979 256.586 147.14 254.403 145.798C252.388 144.623 250.541 142.945 249.534 140.764C248.526 138.415 248.19 135.731 248.19 133.214C248.022 122.477 248.358 111.739 248.862 101.001C249.197 90.9347 248.19 80.8682 251.213 71.305C252.22 68.285 253.563 64.7617 256.586 62.9162C258.936 61.574 262.462 61.574 264.309 63.7551C266.66 66.4395 265.653 70.2983 265.149 73.3182C264.645 77.1771 263.974 81.0359 263.806 85.0626C263.47 87.8588 263.358 90.7111 263.47 93.6192C265.485 90.9348 273.88 90.767 276.735 93.9548C279.086 91.2704 286.809 91.6059 289.16 95.8003C290.671 94.2903 292.686 93.6192 295.877 94.1225C303.768 95.4647 306.791 112.746 300.578 118.115Z" fill="#F6B399"/>
<path d="M293.358 116.604C291.175 118.282 288.321 118.786 285.802 119.121C283.451 119.345 281.157 119.345 278.918 119.121C279.03 119.68 279.142 120.24 279.254 120.799C279.086 123.651 278.918 125.832 278.75 128.181C278.582 130.194 278.414 132.04 277.742 133.885C276.399 136.738 274.048 138.919 271.362 140.261C268.507 141.939 264.981 143.281 261.623 142.274C255.074 140.261 251.38 133.214 253.227 126.671C254.907 120.631 257.089 115.262 260.951 110.732C264.477 106.873 269.011 104.189 274.216 103.35C277.239 103.015 280.261 102.847 283.283 103.015C285.802 103.182 288.657 103.686 291.007 105.028C293.022 106.202 294.701 108.048 295.205 110.564C295.709 112.746 295.205 115.262 293.358 116.604Z" fill="#F6B399"/>
<path d="M178.172 78.6869C177.724 82.4898 176.828 86.181 175.485 89.7602C170.616 102.343 162.724 109.893 149.963 114.255C149.795 114.591 147.108 117.611 146.437 117.779C143.414 118.114 140.392 116.269 138.881 113.584C137.369 110.9 136.866 107.544 136.698 104.357C136.194 93.1156 142.239 82.5457 151.81 76.6736C156.175 73.9892 161.549 71.9759 166.754 71.9759C171.287 71.8081 176.325 73.1503 178.675 77.3447C179.179 78.0158 178.676 78.6869 178.172 78.6869Z" fill="#36174D"/>
<path d="M144.59 121.638C148.948 121.638 152.482 118.107 152.482 113.752C152.482 109.397 148.948 105.867 144.59 105.867C140.231 105.867 136.698 109.397 136.698 113.752C136.698 118.107 140.231 121.638 144.59 121.638Z" fill="#F6B399"/>
<path d="M177.836 100.834C178.172 101.672 177.668 102.679 176.829 102.847C175.821 103.182 174.814 102.847 173.974 102.679C172.967 102.511 172.127 102.176 171.119 102.008C169.272 101.84 167.426 102.008 165.746 102.847C165.075 103.182 163.9 102.679 164.235 101.84C164.739 100.834 165.243 100.33 166.082 99.8269C166.306 99.6032 166.53 99.4354 166.754 99.3235C167.929 98.8202 168.265 98.4846 168.601 98.4846C170.448 97.6458 172.631 97.3103 174.646 97.8136C175.485 98.3169 175.821 98.4847 176.157 98.8202C176.996 99.3235 177.5 99.9947 177.836 100.834Z" fill="#36174D"/>
<path fill-rule="evenodd" clip-rule="evenodd" d="M197.145 116.94C191.94 116.94 187.743 112.746 187.743 107.377C187.743 102.176 191.94 97.9814 197.145 97.9814C202.351 97.9814 206.549 102.176 206.549 107.377C206.549 112.746 202.351 116.94 197.145 116.94ZM197.145 99.9947C192.948 99.9947 189.589 103.35 189.589 107.377C189.589 111.571 192.948 114.927 197.145 114.927C201.175 114.927 204.701 111.571 204.701 107.377C204.701 103.35 201.175 99.9947 197.145 99.9947Z" fill="white"/>
<path d="M190.093 117.276C189.086 118.114 187.743 116.772 188.582 115.933C189.086 115.598 189.757 115.095 189.757 114.591C189.757 113.92 189.254 113.417 188.918 113.081C187.91 112.242 187.239 111.403 186.735 110.229C185.727 108.216 185.728 105.699 186.567 103.518C186.735 104.021 187.071 104.357 187.574 104.357C187.91 104.357 188.19 104.301 188.414 104.189C187.407 106.202 187.743 108.887 189.086 110.732C189.925 111.739 191.269 112.41 191.605 113.752C191.94 115.262 191.101 116.437 190.093 117.276Z" fill="#EE796A"/>
<path d="M188.75 120.967C185.392 122.141 181.194 120.967 178.844 117.947C178.508 117.611 178.508 117.108 178.844 116.604C179.179 116.269 179.851 116.269 180.187 116.604C182.202 118.953 185.392 119.96 188.247 118.953C188.751 118.785 189.422 119.289 189.422 119.624C189.59 120.296 189.254 120.799 188.75 120.967Z" fill="#EE796A"/>
<path d="M150.634 116.772C148.955 117.443 147.276 118.115 145.597 118.786C145.093 119.121 144.59 118.953 144.254 118.45C144.086 118.114 144.254 117.276 144.59 117.108C145.933 116.549 147.22 116.045 148.452 115.598C148.004 115.262 147.556 114.983 147.109 114.759C146.101 114.088 145.094 113.417 144.086 112.746C143.582 112.578 143.582 111.907 143.75 111.571C144.086 111.068 144.59 110.9 145.093 111.068L148.284 113.249C148.844 113.585 149.403 113.92 149.963 114.256C150.467 114.591 150.97 114.927 150.97 115.598C151.138 115.933 150.97 116.605 150.634 116.772Z" fill="#EE796A"/>
<path d="M212.593 144.12C210.243 146.469 207.22 149.153 204.03 151.166C196.474 155.864 180.018 163.75 148.451 157.878C129.981 154.354 120.914 148.65 116.548 144.12H212.593Z" fill="#F6B399"/>
<path d="M222.5 144.12C216.455 151.502 202.015 165.259 176.828 165.763C142.407 166.266 125.112 157.877 115.373 151.334C111.343 148.65 108.825 146.301 107.146 144.455C108.041 144.343 108.936 144.231 109.832 144.12C110.615 144.008 111.399 143.952 112.183 143.952C112.966 143.952 113.75 144.008 114.533 144.12H116.548C120.914 148.65 129.981 154.354 148.451 157.877C180.018 163.749 196.474 155.864 204.03 151.166C207.22 149.153 210.243 146.469 212.593 144.12H217.966C218.806 144.12 219.477 143.952 220.317 143.952C220.989 143.952 221.716 144.008 222.5 144.12Z" fill="white"/>
<path d="M164.067 196.634C161.381 198.647 157.687 200.157 154.161 199.821C149.459 199.15 144.59 196.801 142.407 192.439C140.056 187.406 142.407 182.373 143.583 177.339C144.086 174.99 144.422 172.306 143.247 170.125C142.239 167.944 140.224 166.769 138.377 165.259C136.698 163.917 134.851 162.239 134.179 160.058C133.34 157.374 134.683 154.857 135.523 152.341C137.706 146.972 137.706 143.113 136.866 137.409C135.523 130.362 139.385 123.315 146.605 121.47C152.146 120.128 155.504 124.993 157.015 129.523C157.855 132.04 158.358 134.892 158.526 137.576C158.526 138.751 158.527 140.093 158.359 141.267C158.023 142.61 156.679 143.952 156.512 145.126C156.344 148.146 156.68 150.663 158.359 153.347C160.374 156.703 163.228 159.052 163.06 163.078C163.06 164.588 162.556 165.931 162.388 167.273C162.22 168.447 162.053 169.789 163.06 170.628C165.243 172.977 167.594 174.319 169.105 177.339C172.631 184.554 170.448 192.104 164.067 196.634Z" fill="#36174D"/>
<path d="M212.929 190.258C210.41 195.459 205.037 196.969 200.336 195.627C195.802 194.285 191.604 190.091 190.429 184.722C189.757 181.534 190.429 178.346 191.101 175.158C191.772 172.138 192.276 168.783 190.933 166.099C189.925 164.421 188.246 163.246 186.567 162.24C184.888 161.233 183.209 160.394 181.698 158.884C180.018 157.206 179.011 154.857 179.011 152.173C179.011 150.663 179.179 148.985 179.515 147.475C179.85 145.686 180.243 143.84 180.69 141.939C180.858 140.764 182.537 141.1 182.537 142.274C185.895 137.577 190.765 135.06 195.298 135.395C197.649 135.563 200.168 136.57 201.175 139.422C202.183 142.274 199.16 144.623 200.672 147.308C202.351 149.992 206.381 153.515 208.731 155.025C218.134 161.736 211.082 171.803 211.25 174.991C211.25 176.668 212.257 177.843 212.929 179.017C213.601 180.192 214.104 181.366 214.272 182.708C214.608 185.225 214.104 188.077 212.929 190.258Z" fill="#36174D"/>
<path d="M49.7205 171.635C49.3847 174.487 48.881 177.843 47.2019 180.024C45.3548 182.373 42.3325 182.54 39.6459 181.869C35.784 180.863 31.5859 178.682 29.2351 175.326C25.8769 169.454 26.2128 162.407 30.5785 157.877C34.1046 154.354 39.8135 152.844 44.3471 155.193C47.0336 156.535 48.0414 159.891 48.881 162.575C49.7205 165.595 49.8884 168.615 49.7205 171.635Z" fill="#F6B399"/>
<path d="M87.5005 169.454C87.3326 171.635 86.9965 173.984 85.989 175.997C85.1495 177.675 83.8061 179.185 82.127 180.192C81.1195 180.863 80.0001 181.31 78.7688 181.534C80.4479 182.54 79.4405 184.218 78.4331 183.547C77.3137 182.988 76.1943 182.429 75.0749 181.869C73.3957 181.702 71.7166 181.03 70.3733 180.192C69.5337 179.688 69.8695 178.849 70.3733 178.514C69.1979 177.172 68.6945 175.494 68.1908 173.481C67.687 170.796 67.0154 168.112 67.3512 165.26C67.687 162.743 68.8624 160.394 69.0303 157.71C69.702 149.153 61.8099 139.758 67.8546 131.537C70.0375 128.852 74.9069 126.503 77.5935 129.859C78.9368 131.537 79.4408 133.885 79.9445 135.899C80.4482 138.08 80.6161 140.429 81.1198 142.61C81.4556 144.959 81.9592 147.14 82.6308 149.321C83.3025 151.67 84.6457 153.683 85.4852 156.032C87.3322 160.226 87.8363 164.924 87.5005 169.454Z" fill="#F6B399"/>
<path d="M121.25 179.353C115.541 212.684 111.679 234.999 109.664 246.296C108.993 249.819 108.657 252 108.657 252H65.5039C67.183 246.072 69.4779 236.285 72.3884 222.639C73.9556 215.592 75.6904 207.204 77.5934 197.473C80.112 184.722 82.1269 175.997 83.806 169.957C84.9813 165.26 85.9891 162.24 86.6608 160.226C87.1085 159.22 87.4441 158.437 87.668 157.877C88.0038 157.206 88.172 156.871 88.3399 156.871C88.3399 156.871 99.3098 164.365 121.25 179.353Z" fill="#19C5FF"/>
<path d="M86.6609 226.833L44.851 214.25C46.3622 207.539 48.0412 201.164 49.3845 195.795C47.0338 194.341 44.6831 192.887 42.3323 191.433C41.8846 191.209 41.4929 191.041 41.1571 190.929C39.478 190.482 37.7427 190.034 35.9517 189.587C32.2576 188.58 28.5639 187.574 24.8698 186.567C18.4892 184.721 11.9405 182.54 5.72781 180.024C4.38452 179.52 3.04149 179.017 2.20194 177.843C1.36238 176.836 1.0264 175.662 1.19431 174.319C1.36222 171.635 3.5453 169.622 6.06396 168.615C9.08634 167.441 12.2766 167.441 15.299 168.112C18.4893 168.783 21.6795 169.957 24.8698 170.796C28.5639 171.971 32.4256 173.313 35.9517 174.823C36.0636 174.152 36.1759 173.536 36.2878 172.977C36.6236 169.789 37.295 166.769 37.6308 163.582C38.1345 160.73 38.6384 157.71 39.478 154.857C40.9891 150.16 44.0117 144.959 48.8811 143.449C54.4221 141.603 59.6271 145.126 64.1607 148.146C68.8622 151.166 73.3958 154.186 77.5935 157.71C78.2652 158.269 78.9367 158.828 79.6084 159.387C81.1755 158.045 82.5191 156.927 83.6385 156.032C85.8773 155.137 87.1647 160.953 87.5005 173.48C88.0042 184.218 87.1647 208.21 86.6609 226.833Z" fill="#F6B399"/>
<path d="M75.9146 181.366C68.5265 174.655 57.2768 176.333 48.0417 175.326C46.8663 175.158 46.8663 173.145 48.0417 173.313C57.9484 174.319 69.3661 172.81 77.2579 180.024C78.2654 180.863 76.922 182.205 75.9146 181.366Z" fill="#EE796A"/>
<path d="M64.3283 162.072C64.1604 161.568 64.832 161.065 65.1678 161.065C65.8395 161.065 66.175 161.568 66.175 162.072C66.6788 166.434 67.8541 171.299 72.0519 173.481C73.0594 173.984 72.0521 175.662 71.0447 175.158C66.1753 172.642 64.832 167.105 64.3283 162.072Z" fill="#EE796A"/>
<path fill-rule="evenodd" clip-rule="evenodd" d="M80.28 135.395C80.28 141.268 75.0747 145.965 68.8621 145.965V147.475C68.8621 153.18 63.8248 157.71 57.6121 157.71H42.5002C36.4554 157.71 31.418 153.18 31.418 147.475V117.443H68.8621C68.8621 122.253 68.8621 124.658 68.8621 124.658C75.0747 124.658 80.28 129.355 80.28 135.395ZM75.5785 135.395C75.5785 131.872 72.5561 129.02 68.8621 129.02C68.8621 137.409 68.8621 141.603 68.8621 141.603C72.5561 141.603 75.5785 138.751 75.5785 135.395Z" fill="#DADEF1"/>
<path d="M68.8621 136.234C67.6867 137.073 66.3436 137.912 64.8324 138.08C63.4891 138.08 62.3137 137.577 61.4742 136.57C60.8025 135.899 60.2987 135.06 59.2913 134.557C58.1159 134.221 56.9403 135.06 56.1007 135.731C54.4216 137.241 52.5748 139.422 50.0562 139.087C48.8808 138.919 48.0411 138.08 47.3695 137.241C46.6978 136.57 46.0261 135.563 45.1865 135.228C43.5074 134.557 41.4928 135.395 40.8211 137.073C40.3174 138.08 38.6383 137.241 39.142 136.067C39.9816 134.053 42.5003 132.879 44.6831 133.214C45.6906 133.326 46.5859 133.718 47.3695 134.389C48.209 135.06 48.7128 136.234 49.5524 136.738C51.7352 138.248 54.254 134.724 55.5973 133.718C56.6048 133.047 57.7799 132.376 59.1232 132.543C60.2986 132.711 61.138 133.382 61.9776 134.221C62.6492 134.892 63.1532 135.899 64.3286 136.067C65.5039 136.234 66.847 135.228 67.8544 134.557C68.8619 133.718 69.8695 135.395 68.8621 136.234Z" fill="#19C5FF"/>
<path d="M106.306 101.169C105.131 102.847 103.284 103.35 101.269 102.847C99.5895 102.511 97.9105 101.001 97.5747 97.9813C97.7426 96.8069 98.2462 95.8002 99.0857 94.9613C99.7574 94.2902 100.765 93.7869 101.772 93.6192C103.619 93.2836 105.634 94.1224 106.474 95.968C107.313 97.4779 107.313 99.6591 106.306 101.169Z" fill="#19C5FF"/>
<path fill-rule="evenodd" clip-rule="evenodd" d="M62.4815 72.4792C61.474 73.8215 59.6271 74.4926 57.948 73.9893C56.9405 73.4859 56.101 72.8148 55.0936 71.6404C54.9257 71.3048 54.7578 70.8015 54.7578 70.1304C54.5899 69.6271 54.7575 69.2915 55.2612 68.956C55.765 68.1171 56.7726 67.2783 57.948 67.1105C59.2913 66.7749 60.9704 66.9427 62.1457 67.9494C63.489 69.1238 63.4889 70.9693 62.4815 72.4792ZM59.6271 68.7882C59.2913 68.7882 59.1233 68.7882 61.3062 70.466C61.3062 70.466 61.3062 70.2982 59.6271 68.7882Z" fill="#FFBB4D"/>
<path d="M45.0187 164.421C44.1791 165.428 43.0035 166.099 41.8281 166.77C40.3729 167.441 38.8618 168.056 37.2946 168.615C36.1193 169.286 34.7762 169.79 33.7688 170.628C33.4329 170.964 32.9292 171.467 32.9292 171.971C32.9292 172.642 33.0969 173.145 33.0969 173.816C33.2648 175.326 32.2574 175.83 31.082 176.165C31.082 176.836 30.0746 177.34 29.4029 176.836C29.0671 176.501 28.7311 176.221 28.3953 175.997C27.8356 175.886 27.3882 175.774 27.0523 175.662C24.7016 174.655 22.8543 172.642 22.1827 170.293C22.1827 169.846 22.2946 169.51 22.5184 169.286C21.1751 166.602 21.1753 163.414 22.6865 160.897C21.5111 158.716 20.3358 156.368 20.1678 153.851C19.9999 152.173 20 150.663 20.6717 149.153C17.4814 145.798 16.8096 140.764 18.8245 136.738C20.8394 132.879 24.7014 130.53 28.5634 129.02C32.4253 127.678 38.4702 126.671 40.8209 131.369C42.6679 134.724 40.9888 138.583 38.3022 140.932C41.4925 141.603 44.3471 143.617 44.6829 147.14C44.8508 149.153 44.179 151.167 42.8357 152.677C42.1641 153.348 41.4924 153.851 40.6528 154.186C42.3319 154.69 43.8431 155.696 44.8506 157.039C46.5297 159.22 46.8657 162.408 45.0187 164.421Z" fill="#F6B399"/>
<path d="M44.6831 166.099C42.1644 168.112 38.9741 169.454 35.7838 170.293C34.6084 170.629 34.1046 168.783 35.2799 168.447C36.8471 168 38.3582 167.441 39.8134 166.77C41.1567 166.099 42.5001 165.428 43.6755 164.421C45.5225 162.743 45.5224 160.059 44.0112 158.213C42.3321 156.2 39.8136 155.529 37.4629 155.529C34.7763 155.529 32.0898 156.2 29.5712 157.206C27.3883 158.045 25.3733 159.22 24.03 161.065C23.3584 162.072 21.6793 161.233 22.3509 160.226C24.1979 157.542 27.0522 156.032 30.0746 155.025C33.0969 153.851 36.6231 153.18 39.8134 153.851C42.5 154.186 45.3547 155.864 46.3622 158.549C47.5376 161.233 47.0338 164.253 44.6831 166.099Z" fill="#EE796A"/>
<path d="M35.7838 174.152C32.4256 174.655 29.2352 173.984 26.0449 173.145C20.8397 171.467 15.8024 168.951 10.0934 169.119C7.7427 169.286 5.22404 169.957 3.37703 171.635C1.86584 173.313 1.02628 176.165 3.37703 177.507C4.38449 178.011 3.54478 179.688 2.3694 179.185C-0.317163 177.675 -0.652656 173.816 1.02645 171.467C4.55257 166.602 11.2689 166.602 16.4741 167.944C22.6868 169.454 28.7315 173.145 35.28 172.306C36.4554 172.138 36.9592 173.984 35.7838 174.152Z" fill="#EE796A"/>
<path d="M41.4926 173.481C41.4926 173.984 40.9891 174.487 40.4854 174.487C38.4705 174.487 36.3993 174.375 34.2724 174.152C33.7687 174.152 33.4328 173.816 33.4328 173.145C33.2649 172.642 33.7687 172.138 34.2724 172.138C36.3993 172.474 38.4705 172.586 40.4854 172.474C40.9891 172.474 41.4926 172.977 41.4926 173.481Z" fill="#EE796A"/>
<path d="M45.0189 168.28C44.851 168.447 44.6828 168.783 44.347 168.783C44.1791 168.783 43.8432 168.783 43.5074 168.615C43.1716 168.447 42.8359 168.447 41.9964 168.28C41.3248 168.28 40.9888 167.776 40.9888 167.273C40.9888 167.105 41.157 166.77 41.3249 166.602C41.4369 166.378 41.6606 166.266 41.9964 166.266C42.8919 166.266 43.7876 166.49 44.6831 166.937C44.851 167.105 45.0189 167.273 45.0189 167.608C45.1868 167.776 45.1868 168.112 45.0189 168.28Z" fill="#EE796A"/>
<path d="M46.0263 148.482C45.8584 151.166 44.3474 153.683 41.9966 154.857C40.8212 155.529 39.8136 153.851 40.989 153.18C43.1718 152.005 44.5154 149.656 44.1795 147.14C43.6758 144.959 42.1646 143.113 39.9818 142.61C37.631 141.771 34.9444 142.442 32.7615 143.113C28.3959 144.288 23.8622 146.133 21.3436 149.992C20.6719 150.999 18.8249 149.992 19.6645 148.985C21.3436 146.469 23.8624 144.455 26.5489 143.281C29.0676 141.939 31.9222 141.1 34.6087 140.596C37.4632 140.093 40.4854 140.093 42.8362 141.771C45.019 143.281 46.3621 145.965 46.0263 148.482Z" fill="#EE796A"/>
<path d="M38.974 141.771C37.7986 142.442 36.9593 140.764 37.9668 140.093C40.1496 138.583 40.6533 135.899 39.9816 133.382C39.6458 132.208 38.9742 131.201 38.3025 130.194C37.463 129.188 36.4553 129.02 35.112 128.852C32.5933 128.852 30.0747 129.02 27.556 129.859C23.3583 131.201 19.4963 134.557 19.1605 139.254C18.9926 140.596 16.9778 140.596 17.1457 139.254C17.3136 136.234 18.825 133.382 21.1758 131.201C23.3586 129.355 26.0451 128.013 29.0675 127.51C30.5227 127.174 32.0338 127.007 33.601 127.007C34.9443 126.839 36.6235 126.839 37.9668 127.51C39.3101 128.181 40.1496 129.355 40.8212 130.698C41.6607 131.872 42.1646 133.382 42.1646 134.892C42.5004 137.576 41.1569 140.261 38.974 141.771Z" fill="#EE796A"/>
<path d="M86.6607 226.833C86.3249 236.229 85.9889 244.618 85.6531 252H47.8733C41.6606 252 37.127 246.295 38.6382 240.256C40.3173 233.041 42.5001 223.478 44.8508 214.25L72.3884 222.639L86.4927 226.833H86.6607Z" fill="#19C5FF"/>
<path d="M294.03 113.417C293.694 116.101 291.847 118.114 289.664 119.121C286.977 120.631 283.955 120.799 281.1 121.47C280.429 121.638 279.421 121.638 279.254 122.477C279.086 122.98 279.253 123.819 279.086 124.49C278.974 125.944 278.75 127.454 278.414 129.02C277.071 134.221 273.88 139.254 268.507 140.764C267.332 141.1 266.828 139.254 268.004 138.919C273.713 137.241 276.231 131.201 277.071 125.832C277.239 124.49 277.071 122.98 277.406 121.806C277.742 120.463 278.918 120.128 280.093 119.792C282.78 119.121 285.466 118.953 287.985 117.779C290.168 116.94 292.015 115.262 292.183 112.913C292.351 111.907 292.015 110.732 291.343 110.061C290.504 109.222 289.16 109.055 288.153 108.887C285.298 108.551 282.276 108.383 279.421 108.383C276.567 108.216 273.545 107.88 270.858 108.887C268.339 109.558 266.492 111.739 264.813 113.752C262.91 115.877 261.175 118.17 259.608 120.631C258.937 121.638 257.257 120.631 257.929 119.624C259.832 116.604 262.015 113.752 264.477 111.068C266.66 108.719 269.179 106.873 272.537 106.538C275.56 106.035 278.918 106.37 282.108 106.538C283.787 106.65 285.41 106.762 286.977 106.873C288.321 106.873 289.664 107.041 290.839 107.545C293.358 108.551 294.366 110.9 294.03 113.417Z" fill="#EE796A"/>
<path d="M268.34 109.222C268.004 109.558 267.333 109.558 266.997 109.222C266.493 108.887 266.661 108.216 266.661 104.357C266.325 104.245 265.989 104.077 265.653 103.854C264.982 103.518 264.31 103.182 263.807 102.511C263.471 102.176 263.471 101.505 263.807 101.169C264.142 100.834 264.814 100.666 265.15 101.169C265.485 101.505 265.653 101.672 266.157 101.84C266.493 102.064 266.829 102.288 267.165 102.511C267.836 102.847 268.508 103.518 269.012 104.357C269.683 105.867 269.515 107.88 268.34 109.222Z" fill="#EE796A"/>
<path d="M281.94 107.545C281.436 108.719 279.589 108.216 279.925 107.041C281.604 102.679 280.093 97.3103 276.063 94.7936C275.056 94.1225 276.063 92.4448 277.071 93.1159C281.772 96.1359 283.787 102.344 281.94 107.545Z" fill="#EE796A"/>
<path d="M291.847 108.719C291.176 109.893 289.497 108.887 290.168 107.712C292.351 104.189 291.679 99.1557 288.489 96.3035C287.65 95.2968 288.993 93.9547 290 94.7936C293.694 98.4846 294.366 104.357 291.847 108.719Z" fill="#EE796A"/>
<path d="M298.899 120.631C297.22 121.638 295.205 121.638 293.526 120.799C292.015 119.96 291.007 118.45 290.839 116.605C290.839 116.101 291.343 115.766 291.847 115.766C292.351 115.766 292.686 116.101 293.358 118.114C293.526 118.282 293.694 118.45 294.533 119.121C295.037 119.457 295.541 119.457 297.892 118.953C298.395 118.618 298.899 118.786 299.235 119.289C299.571 119.792 299.235 120.296 298.899 120.631Z" fill="#EE796A"/>
<path d="M266.157 74.996C265.373 78.3515 264.757 81.8189 264.31 85.3981C263.414 92.4447 263.078 99.4914 263.302 106.538C263.302 107.712 261.455 107.712 261.288 106.538C261.288 102.847 261.343 99.1558 261.455 95.4647C261.791 88.9773 262.575 82.5459 263.806 76.1704C264.478 73.1504 265.485 69.9627 264.478 66.9427C263.806 64.7616 261.623 62.7483 259.272 63.2516C257.929 63.5872 257.426 61.5739 258.769 61.4061C261.623 60.735 264.646 62.5805 265.821 65.265C267.332 68.2849 266.828 71.8082 266.157 74.996Z" fill="white"/>
<path d="M296.212 121.638C295.541 127.007 294.869 132.543 292.854 137.744C291.007 142.106 287.985 146.133 282.947 146.804C281.604 146.804 281.604 144.959 282.947 144.791C287.313 144.288 290 139.925 291.343 136.067C293.022 131.537 293.694 126.503 294.365 121.638C294.365 120.296 296.38 120.296 296.212 121.638Z" fill="#EE796A"/>
<path d="M173.806 137.576L173.638 139.59C171.623 139.366 169.664 138.919 167.761 138.248C166.418 137.8 165.131 137.241 163.9 136.57C162.724 135.899 161.381 135.228 161.045 133.885C160.541 132.711 162.556 132.208 162.892 133.382C163.06 133.885 163.731 134.221 164.067 134.389C164.515 134.724 165.019 135.004 165.579 135.228C166.698 135.787 167.817 136.234 168.937 136.57C170.616 137.129 172.239 137.465 173.806 137.576Z" fill="#EE796A"/>
<path fill-rule="evenodd" clip-rule="evenodd" d="M66.0077 97.9813C63.657 100.33 60.6343 101.505 57.7799 103.182C56.6045 104.021 55.4294 104.86 54.7578 106.202C54.0862 107.545 54.7576 109.39 53.7502 110.732C52.4069 113.081 49.0485 113.417 46.8657 112.075C44.5149 110.397 43.8434 107.377 44.0113 104.189C43.1717 102.847 41.6607 101.84 40.8212 100.33C39.9816 98.8202 39.9814 97.1425 40.9888 95.6325C42.1642 94.2903 43.8436 93.6191 45.5227 92.948C47.2018 92.4447 48.8808 91.7736 49.5524 90.0958C50.5599 87.2436 49.5523 83.7203 52.4068 81.707C55.0934 79.5259 59.2912 80.1971 62.1457 81.3715C65.5039 82.7137 68.1905 85.3982 68.8621 88.9215C69.7017 92.277 68.3585 95.4647 66.0077 97.9813ZM66.0077 86.9081C64.4965 84.2237 61.474 82.7137 58.2837 82.3781C56.9404 82.2104 55.4292 82.2104 54.0859 82.8815C52.9105 83.5526 52.4069 84.727 52.0711 86.0692C51.7353 88.5859 51.9032 91.4381 49.5524 93.2836C48.377 94.1225 47.0337 94.6258 45.6904 94.9614C44.515 95.4647 43.0038 95.968 42.3322 97.1424C41.8285 98.3169 42.5001 99.3235 43.1717 100.162C43.8434 101.169 44.683 102.008 45.3547 102.847C46.0263 102.847 46.6981 103.35 46.3623 104.021C45.6906 106.538 46.0264 110.397 49.2167 110.9C50.2241 111.068 51.5673 110.732 52.0711 109.726C52.5748 109.055 52.407 108.216 52.5749 107.377C52.5749 106.594 52.7429 105.867 53.0787 105.196C54.2541 102.847 56.7727 101.505 58.9556 100.33C61.4742 99.1558 64.1608 97.6458 65.672 95.2969C67.519 92.6125 67.6868 89.5925 66.0077 86.9081Z" fill="#F5F5FA"/>
<path fill-rule="evenodd" clip-rule="evenodd" d="M78.0971 101.672C76.7538 103.014 74.9066 104.189 72.8917 103.686C71.8842 103.35 71.2129 102.679 70.7092 101.84C70.3734 101.001 70.3732 99.8267 71.3807 98.6523C71.5486 96.8067 72.8919 95.2967 74.4031 94.6256C76.2502 93.9545 78.6007 94.1223 79.6081 95.9678C80.6156 97.9811 79.4404 100.162 78.0971 101.672ZM77.5933 96.6389C77.2575 96.1356 76.5857 96.1356 74.5708 96.8067C73.7313 97.31 73.2279 98.3167 73.2279 99.4912C73.2279 99.9945 72.892 100.33 73.2279 101.672C73.5637 101.84 73.7316 101.84 74.0674 101.84C74.739 101.84 75.4104 101.504 75.9142 101.001C76.25 100.666 76.7538 100.162 77.2575 99.6589C77.4254 99.3233 77.5934 98.9878 78.0971 97.9811C78.0971 97.6456 78.097 97.4778 77.5933 96.6389Z" fill="#F5F5FA"/>
<path fill-rule="evenodd" clip-rule="evenodd" d="M87.5005 80.7004C83.8065 82.7137 79.2728 83.8882 75.5787 81.3716C72.3884 79.0227 71.3811 74.3249 74.0677 70.8016C76.4185 67.4461 79.7767 64.5939 84.1423 64.7617C88.1722 65.0972 92.5379 67.4461 93.3774 71.6405C94.049 75.8349 90.8587 78.8549 87.5005 80.7004ZM90.8587 70.6339C89.3476 67.6139 85.1497 66.1039 81.9594 66.9428C78.937 67.6139 76.7543 70.1305 74.9073 73.1505C73.564 76.0027 75.075 79.3583 78.0974 80.5327C81.2877 81.7071 84.9818 80.0293 87.8363 78.3515C90.5228 76.6738 92.5379 73.8216 90.8587 70.6339Z" fill="#F5F5FA"/>
<path d="M290.84 217.27C295.662 217.27 299.571 213.364 299.571 208.546C299.571 203.728 295.662 199.821 290.84 199.821C286.017 199.821 282.108 203.728 282.108 208.546C282.108 213.364 286.017 217.27 290.84 217.27Z" fill="#F5F5FA"/>
<path d="M216.287 187.742C215.616 189.923 214.272 191.936 212.425 193.278C210.578 194.453 208.228 194.956 206.045 194.285C204.869 193.949 205.373 191.936 206.717 192.439C209.067 193.278 211.586 191.936 212.929 190.091C214.44 188.077 215.112 185.225 214.944 182.708C214.776 181.702 214.608 180.527 213.769 179.688C213.097 178.85 212.09 178.346 211.586 177.172C210.41 175.158 210.746 172.81 211.418 170.796C212.257 168.447 213.433 166.266 213.936 163.917C214.272 161.736 214.105 159.387 213.265 157.542C211.082 153.18 205.877 152.005 202.519 148.985C201.008 147.643 199.832 145.63 199.832 143.617C199.664 141.603 200.336 139.758 202.015 138.583C203.023 137.744 204.03 139.422 203.022 140.261C201.175 141.603 201.511 144.455 202.519 146.133C204.03 148.314 206.549 149.489 208.731 150.831C210.746 152.005 212.761 153.348 214.273 155.361C215.448 157.206 215.951 159.388 216.119 161.569C216.119 163.917 215.448 166.266 214.608 168.447C213.601 170.628 212.258 172.977 212.929 175.326C213.265 176.668 214.105 177.172 214.944 178.011C215.784 178.85 216.287 179.856 216.623 180.863C217.127 183.044 216.791 185.561 216.287 187.742Z" fill="#36174D"/>
<path d="M169.44 195.627C165.578 199.15 159.198 200.66 155 196.802C153.992 195.963 155.504 194.621 156.343 195.459C158.526 197.473 161.716 197.473 164.235 196.466C166.922 195.627 169.272 193.614 170.616 191.097C173.302 186.232 171.791 180.36 167.929 176.668C166.082 174.823 163.899 173.145 163.395 170.628C162.892 167.944 163.899 165.427 164.571 162.911C164.907 161.736 165.075 160.394 164.739 159.22C164.403 157.878 163.563 156.871 162.724 156.032C160.877 154.186 158.862 152.676 157.35 150.495C154.664 145.965 153.992 140.261 156.007 135.395C156.343 134.221 158.19 134.724 157.854 135.899C155.504 141.771 157.182 148.314 161.884 152.677C163.731 154.354 166.082 156.2 166.754 158.884C167.425 161.569 166.082 164.253 165.41 166.937C165.242 168.28 165.074 169.622 165.41 170.964C165.914 172.138 166.921 172.977 167.761 173.984C168.768 174.823 169.944 175.662 170.783 176.836C171.679 177.955 172.407 179.185 172.966 180.527C174.981 185.728 173.638 191.768 169.44 195.627Z" fill="#36174D"/>
<path d="M88.8435 189.084C88.8435 198.367 88.7877 207.651 88.6758 216.935C88.4519 228.567 88.0602 240.256 87.5005 252H85.6533C85.8772 245.624 86.1009 239.305 86.3248 233.041C86.3248 230.916 86.3809 228.847 86.4929 226.833C86.7168 216.543 86.8847 206.197 86.9967 195.795C86.9967 192.551 86.9967 189.308 86.9967 186.064C86.9967 177.451 86.8848 168.839 86.6609 160.226C86.6609 159.387 86.6609 159.052 86.6609 158.716C86.6609 158.045 87.1644 157.877 87.6682 157.877C88.1719 157.877 88.5079 158.213 88.6758 158.716C88.7877 165.763 88.8435 172.754 88.8435 179.688C88.8435 182.82 88.8435 185.952 88.8435 189.084Z" fill="white"/>
<path d="M122.425 206.365C121.306 210.28 120.186 214.195 119.067 218.109C115.933 229.294 113.022 240.591 110.336 252H108.321C108.657 250.658 108.993 249.316 109.328 247.973C109.44 247.414 109.552 246.911 109.664 246.463C112.91 232.818 116.548 219.284 120.578 205.862C120.914 204.687 122.761 205.191 122.425 206.365Z" fill="white"/>
<path d="M147.444 127.342C149.485 127.342 151.138 125.69 151.138 123.651C151.138 121.612 149.485 119.96 147.444 119.96C145.404 119.96 143.75 121.612 143.75 123.651C143.75 125.69 145.404 127.342 147.444 127.342Z" fill="white"/>
<path fill-rule="evenodd" clip-rule="evenodd" d="M174.646 118.45C169.441 118.45 165.243 114.256 165.243 109.054C165.243 103.853 169.441 99.4912 174.646 99.4912C179.851 99.4912 184.217 103.853 184.217 109.054C184.217 114.256 179.851 118.45 174.646 118.45ZM174.646 101.505C170.616 101.505 167.258 104.86 167.258 109.054C167.258 113.081 170.616 116.437 174.646 116.437C178.844 116.437 182.202 113.081 182.202 109.054C182.202 104.86 178.844 101.505 174.646 101.505Z" fill="white"/>
<path d="M190.261 108.887C190.093 109.39 189.422 109.558 186.735 108.719C186.399 108.887 186.231 108.887 184.552 110.061C184.384 110.564 183.713 110.732 183.209 110.397C182.873 110.229 182.705 109.558 182.873 109.054C184.384 106.873 187.743 106.034 189.926 107.544C190.429 107.88 190.597 108.383 190.261 108.887Z" fill="white"/>
<path d="M183.209 55.5338C182.538 56.0931 181.81 56.4286 181.026 56.5405C180.355 56.5405 179.515 56.205 179.012 55.8694C177.668 55.0305 176.829 53.3527 177.668 51.0039C178.508 49.4939 180.187 48.9906 181.698 49.3261C183.041 49.4939 184.217 50.5005 184.385 51.8428C184.72 53.185 184.217 54.695 183.209 55.5338Z" fill="white"/>
<path fill-rule="evenodd" clip-rule="evenodd" d="M285.634 49.8296C285.131 51.1718 283.787 52.0107 282.444 52.1785C281.604 52.3463 280.933 52.1785 280.429 51.6752C280.093 51.5074 279.925 51.3396 279.758 49.9974C279.086 49.9974 278.75 49.494 278.75 48.9907C278.582 47.4807 279.757 46.1385 281.101 45.6352C282.276 45.1319 283.619 45.1319 284.627 45.803C285.298 46.3063 285.802 46.9774 285.97 47.6485C286.138 48.4874 285.97 49.1585 285.634 49.8296ZM281.604 48.3197C281.604 48.9908 281.772 49.6619 284.123 48.6552C284.123 48.4875 284.123 48.4874 281.604 48.3197Z" fill="white"/>
<path d="M225.69 238.41C225.018 238.41 224.347 237.739 224.347 237.068V178.178C224.347 174.487 224.179 163.414 233.078 162.911C241.306 162.575 321.231 162.575 324.589 162.575C325.429 162.575 325.933 163.079 325.933 163.75C325.933 164.589 325.429 165.092 324.589 165.092C323.918 165.092 241.306 165.092 233.246 165.595C227.537 165.763 226.865 172.81 227.033 178.178C227.033 178.626 227.033 198.256 227.033 237.068C227.033 237.739 226.361 238.41 225.69 238.41Z" fill="white"/>
</svg>
