<?xml version="1.0" encoding="utf-8"?>
<!-- Generator: Adobe Illustrator 28.0.0, SVG Export Plug-In . SVG Version: 6.00 Build 0)  -->
<svg version="1.1" id="Ebene_1" xmlns="http://www.w3.org/2000/svg" xmlns:xlink="http://www.w3.org/1999/xlink" x="0px" y="0px"
	 viewBox="0 0 370 370" style="enable-background:new 0 0 370 370;" xml:space="preserve">
<style type="text/css">
	.st0{fill:#36174D;}
	.st1{fill:#CB6D58;}
	.st2{fill:#19C5FF;}
	.st3{fill:#FFFFFF;}
	.st4{fill:#FFBB4D;}
	.st5{fill:#F66957;}
	.st6{fill:#AB5A44;}
	.st7{fill-rule:evenodd;clip-rule:evenodd;fill:#FFBB4D;}
</style>
<path class="st0" d="M278.2,197.4c0,0.7-0.7,1.2-1.2,1.2c-7-0.9-13.9-1.8-20.9-2.8l-37.3-5c-12.5-1.7-24.9-3.3-37.3-4.8
	c-0.7-0.1-1.2-0.7-1.1-1.4c0.2-1.5,0.3-3,0.4-4.5c0.8-12.8,0.3-23.4-0.1-36.2c-0.1-7.6-1.6-17.8-1.1-24.9c-2.7-2.6-6.5-6.7-5.6-13.9
	c2.3-20.6,22.8-33.3,43.4-33.3c17.5,0,32,11.8,36.3,27.9c0.5,1.7,0.8,3.5,1,5.4c0.2,1.4,0.3,2.8,0.3,4.3c0,0.4,0,0.7,0,1
	c0.3,4,0.9,8.1,1.8,12.1c2.7,12.7,7.6,24.9,12,37C273.1,172,277.1,184.3,278.2,197.4z"/>
<path class="st1" d="M232.4,165.3l-23.6,0.8l-1.1-18.9l-0.1-2.3l-0.4-6.2l21.9-2.6L232.4,165.3z"/>
<path class="st1" d="M239,125c-2.9,11.7-13.5,20.5-26.1,20.5c-14.8,0-26.9-12.1-26.9-27c0-3,0.6-5.9,1.5-8.7
	c3.3-9.9,12.4-17.2,23.2-18c2.2,4.8,4.7,9.5,7.7,13.9C223.9,113.5,230.8,120.2,239,125z"/>
<path class="st1" d="M238.1,135.2c5.2,0,9.5-4.3,9.5-9.5c0-5.2-4.2-9.5-9.5-9.5s-9.5,4.3-9.5,9.5C228.6,131,232.8,135.2,238.1,135.2
	z"/>
<path class="st1" d="M239,125c-5.6,4.1-12.8,6.6-20.8,6.6c-15.3,0-28-9.4-30.8-21.7c-0.5-1.7-0.7-3.5-0.7-5.2
	c4.4-8.3,11.3-14.7,19.5-18.4c0.6-0.3,1.3-0.5,1.9-0.7c0.7,2.1,1.6,4.2,2.5,6.3c2.2,4.8,4.7,9.5,7.7,13.9
	C223.9,113.5,230.8,120.2,239,125z"/>
<path class="st2" d="M334.4,288.9c-11.5,9.9-43,12.5-57.7-9.4c-9.7-14.6-15.4-33.1-17.2-55.5l-77.4,49c-0.4-0.4-0.7-0.6-1-0.8
	c-2.9-3.9-5.3-8.3-7-13.1c-0.6-2-1.2-4.1-1.6-6.3c-0.6-2.1-1-4.1-2.1-6.1c-2.1-3.3-5.9-5-8.7-7.4c-3.7-3.4-5.9-8.1-6.5-12.9
	c-7.8,6.9-31.9,27.4-50.6,37.7c-12,6.6-29.1,15.1-42.3,13.2c-15.8-2.5-29.1-12-31.3-27.4c-0.5-2.4-0.9-4.8-1-7.2
	c-0.5-11.8,4.4-22.8,10-32.9c2.9-5.2,6-10.3,9.1-15.4c3.2-5.4,6.4-10.8,9.6-16.1c0.2-0.4,0.4-0.7,0.5-1c1.1-1.8,2.2-3.7,3.3-5.5
	c1.6,0.8,3.3,1.7,4.9,2.5c9.4,4.8,18.9,9.5,28.3,14.3c1,0.4,1.4,0.5,1.9,0.7c3.4-1.7,6.2-3.6,9.1-5.5c13.6-9.1,27.4-18.2,40.7-27.5
	c14.2-10,29.4-7,45.2-5.2c8.8,1.1,18.1,3,27.1,4c2.9,0.4,5.9,0.7,8.9,1c16.1,1.8,32.4,2.8,48.5,5.2c6,1,14.6,2.2,19.5,6.5
	c13.6,11.4,29.3,55.2,36.4,74.7C337.5,253.8,345.4,279.4,334.4,288.9z"/>
<path class="st3" d="M272.6,237.3c-3.5-7.8-7-15.6-10.4-23.5c-7.6,6.1-13.5,14-17.2,22.8c-0.3,1-1.6,1.1-2.2,0.3
	c-4.8-8.4-8.7-17.2-11.5-26.3c-1.4,1.3-2.7,2.6-3.8,4c-6,6.5-11.1,13.6-15.3,21.3c-0.4,0.8-1.6,0.6-2.1-0.1
	c-4.7-8.8-7.7-18.4-8.8-28.2c-1.4,1.1-2.7,2.3-4,3.6c-6.5,6.2-12.2,13.1-17,20.6c-0.4,0.7-1.6,0.7-2.1-0.1c-3.7-8.4-6-17.3-6.7-26.6
	c-5.6,4.8-11,10.2-15.8,15.8c-0.5,0.6-0.9,1.1-1.4,1.7c-0.2,0.3-0.5,0.5-0.8,0.6c-0.1-1-0.1-2-0.1-3c0.8-0.9,1.6-1.8,2.5-2.8
	c4.9-5.6,10.2-10.8,15.9-15.6c0.8-0.7,1.9,0,1.9,1c0.4,8.9,2.5,17.8,5.9,25.9c1-1.6,2.1-3.1,3.2-4.5c5.4-7.3,11.7-14,18.7-19.8
	c0.8-0.7,1.9-0.1,2.1,1c0.7,9.5,3.4,19,7.7,27.5c0.9-1.7,1.9-3.3,2.9-4.8c4.8-7.4,10.4-14.3,16.9-20.4c0.7-0.7,1.8-0.3,2.1,0.6
	c2.6,8.9,6.2,17.5,10.7,25.5c0.6-1.4,1.3-2.8,2.1-4.1c4-7.2,9.5-13.5,15.9-18.4c0.5-0.4,1.5-0.4,1.9,0.4c3.7,8.3,7.3,16.5,11,24.8
	C275.3,237.6,273.1,238.7,272.6,237.3z"/>
<path class="st0" d="M185,290.5c-0.7,0.1-1.1-0.4-1.4-1c-1.2-3.3-2.3-6.6-3.4-9.9c-3.9-11.5-7.7-22.9-11.4-34.4
	c-3.6-1.4-6.6-3.7-9.1-6.7c-3.6-4.4-5.6-9.8-6.3-15.3c-0.1-1-0.1-2-0.1-3c0-0.9,0-1.8,0-2.8c0.6-8.9,4.3-17.5,8.8-25.2
	c0.7-1.2,2.7,0,1.9,1.4c-4,6.7-7.3,14.2-8.1,22.2c-0.1,0.6-0.1,1.1-0.1,1.7c-0.1,1.2-0.1,2.4-0.1,3.6c0.3,4.3,1.4,8.4,3.4,12.1
	c1.2,2.5,3,4.7,5.1,6.5c1,0.9,2.2,1.7,3.4,2.3c0.6,0.4,1.1,0.7,1.8,1c0.4,0.1,0.8,0.3,1.1,0.4c0.4,0.3,0.6,0.7,0.7,1.1
	c4.7,15,9.6,29.8,14.8,44.6C186.1,289.6,185.5,290.3,185,290.5z"/>
<path class="st1" d="M305.1,253.4c-1.9,3.2-5.4,5.1-8.8,5.9c-3.7,1-7.4,0.5-11.1,0c-2.9,0.1-5.8-0.3-8.4-1.4
	c-2.3-1.1-4.4-2.9-6.2-4.8c-3.7-4-6.3-8.8-8-14c-1.6-5.2-2.5-11.3-1.1-16.8c0.5-2.2,1.5-4.5,3-6.3c0.4-2.8,0.7-5.4,1.5-8
	c1.2-3.9,3.8-7.3,8-8.3c3.7-0.7,8,0.5,11.3,2.1c3.4,1.7,6.3,3.9,8.9,6.3c5.5,5.6,8.9,13.1,10.7,20.6c1,4.1,1.5,8.5,1.8,12.8
	C307.1,245.6,307.3,249.9,305.1,253.4z"/>
<path class="st3" d="M314.5,257.6c-3.3,3.9-8.8,7.1-16.6,9.5c-7.4,2.3-13.5,2.7-18.3,1.2l-7.3-19c7,0.3,13.6-0.6,19.8-2.5
	c7.1-2.3,12-4.5,14.6-6.7L314.5,257.6z"/>
<path class="st3" d="M207.3,148.6c0.2,1.7,2.9,2.6,8.1,2.6c6,0,10.7-1.7,14.3-5l5.1,10.6l-11,26l-9.3-18l-18,10.2
	c3.3-9.6,5.4-15.7,6.2-18.3C203.3,154,204.9,151.3,207.3,148.6z"/>
<path class="st1" d="M123.1,96.1c-2.2,1.2-5.6,1.4-8.8,1.2c-2.1-0.1-4-0.3-5.5-0.4c-3.4,5.5-2.5,11-2.2,17.5c0,0.7-0.7,1.1-1.4,1.1
	c-4,0.3-8.1,0.6-12.1,0.8c0,0.7-0.3,1.2-1,1.4c-0.6,0.1-1.4-0.3-1.4-1.1c0-0.2,0-0.4,0-0.6c-0.3-0.3-0.4-0.6-0.4-0.8
	c0.1-0.3,0.2-0.5,0.3-0.6c-0.5-7-0.8-14.5,1.5-21.1c1.9-5.1,5.2-9.9,10-11.8c3-1.2,6.2-1.4,9.2-1c2.9,0.4,5.9,1,8.7,2.2
	c0.8,0.5,1.6,1,2.3,1.5c0.6,0.6,1.2,1.2,1.8,2.1c0.5,0.7,0.8,1.6,1.1,2.5C126.4,92.9,125.3,95,123.1,96.1z"/>
<path class="st3" d="M109,97.5c-1.2,2.6-1.8,5.5-1.4,8.4c0,0.6-0.3,1.2-1,1.4c-0.5,0.1-1.4-0.3-1.4-1c-0.4-3.3,0.1-6.6,1.5-9.6
	c0.3-0.6,0.8-1,1.5-0.7C108.8,96.1,109.2,96.8,109,97.5z"/>
<path class="st1" d="M120.1,129.7c-1,4.4-2.5,8.8-4.9,12.5c-2.5,3.6-5.9,6.5-10,7.8c-3.6,1.4-7.3,1.4-10.7,0.1
	c-0.8,1.8-1.6,3.7-2.9,5.4c-2.2,3.3-6.2,6.1-10.4,5.1c-3.2-0.6-5.8-3.9-5.4-7.2c-0.1-0.2-0.1-0.4-0.1-0.6c0.3-1.4,0.5-2.7,0.6-4
	c1-9.8-0.3-20,3.4-29.3c1.6-3.9,4-7.4,7.3-9.9c3.8-3,8.5-4.1,13.3-4.4c4.3-0.3,8.7-0.1,12.6,1.5c4,1.8,6.9,5.1,8,9.4
	C121.7,120.6,121.1,125.3,120.1,129.7z"/>
<path class="st1" d="M142.5,123.8c-1.9,1.2-4.1,1.8-5.9,3.3c-5.8,4.7-6.6,12.9-9.6,19.3c-3.3,6.9-7.8,13.2-13.7,18
	c-3.8,3.2-8.1,5.8-12.6,7.7c-5.1,2.2-10.7,3.7-16.1,2.2c-5.1-1.5-8.5-5.8-9.5-10.9c-0.8-4.3-0.1-8.5,1.1-12.7
	c-0.1-0.2-0.1-0.4-0.1-0.7c0-1.2,0.1-2.4,0.3-3.6c1-4.7,3.6-8.9,7-12.1c3.8-3.6,8.8-5.8,13.9-6.6c4.1-0.6,8.5-0.4,12.6,0.4
	c7.4-7.8,17.9-12.5,28.6-13.5C143.9,114.1,148.1,120.2,142.5,123.8z"/>
<path class="st1" d="M113.2,165.5c-0.7,2.2-1.5,4.4-2.2,6.6c-11.5-3.2-22.3-8.9-31.3-16.7c-1.6-1.3-3.2-2.7-4.7-4.3
	c0.9-1.7,1.9-3.3,2.9-5c0.5-0.8,1.6-0.6,2.1,0.3c3.7-3.4,8.1-6.2,12.8-7.3c4.3-1.1,8.7-0.7,12.6,1c3.8,1.7,7.1,4.7,8.8,8.7
	C116.2,154.2,114.9,160.1,113.2,165.5z"/>
<path class="st3" d="M111,172.1c-1.3,3.7-2.6,7.3-3.8,11l-0.3,0.8l-3.3,9.6c-1.1,0-2.2,0-3.3-0.1c-2.7-0.3-5.5-0.8-8.1-1.5
	c-2.7-0.6-5.5-1.4-8.1-2.2c-8.8-2.9-17-7-24.7-12.2c1.1-1.8,2.2-3.7,3.3-5.5c4.1-6.9,8.2-13.8,12.4-20.8c1.5,1.6,3,3,4.7,4.3
	C88.7,163.1,99.5,168.9,111,172.1z"/>
<path class="st2" d="M286.3,218.2v33.6h-94v-33.6H286.3z"/>
<path class="st0" d="M223.8,111.7c-2.6-1.2-5.1-2.3-7.8-3.2c-1.1-0.3-2.2-0.6-3.4-0.8c-1.2-0.1-2.3-0.4-3.3-1.1
	c-1.8-1.5-1.9-4.1,0.1-5.4c2.1-1.2,4.9-0.1,6.9,0.7c2.2,0.8,4.3,2.1,6.3,3.3c0.7,0.4,0.6,1.2,0.1,1.8c1,0.8,1.8,1.8,2.5,3
	C225.7,110.8,224.7,112.1,223.8,111.7z"/>
<path class="st0" d="M216.6,116.2c1.4,0,2.5-1.1,2.5-2.5c0-1.4-1.1-2.5-2.5-2.5c-1.4,0-2.5,1.1-2.5,2.5
	C214.1,115.1,215.2,116.2,216.6,116.2z"/>
<path class="st0" d="M197.6,114.3c1.4,0,2.5-1.1,2.5-2.5c0-1.4-1.1-2.5-2.5-2.5c-1.4,0-2.5,1.1-2.5,2.5
	C195.2,113.2,196.3,114.3,197.6,114.3z"/>
<path class="st3" d="M202.6,127.4l14.6-5.1c0.2,4.2-2.2,7-7.3,8.4C206.8,131.5,204.4,130.4,202.6,127.4z"/>
<path class="st4" d="M191.2,251.4c1.6-0.1,3.1-0.1,4.5-0.1c-0.1,0.2-0.2,0.4-0.4,0.6L191.2,251.4z"/>
<path class="st4" d="M200.5,284.4c0,1.5,0,3,0,4.5c-0.1-1.4-0.2-2.8-0.4-4.1c0-1.1,0-2.2,0.1-3.2c0.2-7.5,0.1-15.1-0.1-22.7
	c0-0.8,0-1.7-0.1-2.5c0.1-0.2,0.2-0.4,0.3-0.7C200.4,265.1,200.4,274.8,200.5,284.4z"/>
<path class="st4" d="M286.3,222.3v74c0,2.2-1.9,4.1-4.1,4.1h-35.1c0.1-1.4,0-2.6,0-4c0-2.6,0-5.2,0-7.8c0-10.6,0-21.1,0-31.7v-4
	c0-0.7-0.4-1.2-1.1-1.2c-11.3-0.1-22.6-0.2-34-0.3c-3.3,0-6.6,0-9.8,0c-1.1-0.1-1.8,0.1-1.9,0.8c-0.4-0.7-0.6-1-0.8-1.2
	c5.6-0.2,11.2-0.3,16.8-0.4c0.2,0,0.4-0.1,0.6-0.3c0.5,0.1,1.2-0.3,1.2-1.1c0-9.1,0-18.2,0.1-27.3c0-1.2,0.1-2.6,0-3.9h63.9
	C284.4,218.2,286.3,220,286.3,222.3z"/>
<path class="st0" d="M218.3,218.2c0.1,1.2,0,2.6,0,3.9c-0.1,9.1-0.1,18.2-0.1,27.3c0,0.8-0.7,1.2-1.2,1.1c-0.2,0.2-0.4,0.3-0.6,0.3
	c-8.4,0.2-16.9,0.4-25.3,0.7c0.5-0.5,0.9-1.1,1.1-1.8c0.1-0.4,0.1-0.7,0.1-1.1v-26.2c0-2.3,1.9-4.1,4.1-4.1H218.3z"/>
<path class="st5" d="M200.7,300.5H162c-2.2,0-4.1-1.9-4.1-4.1v-39.6c0-2.3,1.9-4.1,4.1-4.1h26.1c0.8,0,1.5-0.2,2.1-0.6
	c0.6-0.5,2.3-0.6,5.1-0.3c0.2-0.2,0.3-0.4,0.4-0.6c1.3,0,2.6,0,3.8-0.1c0.3,0.3,0.5,0.6,0.7,1c0.1,1.5,0.1,2.5,0.1,3.6
	c-0.1,0.4-0.3,0.6-0.4,0.8c0.1,0.8,0.1,1.7,0.1,2.5c0.3,7.6,0.3,15.2,0.1,22.7c-0.1,1-0.1,2.1-0.1,3.2c0.2,1.4,0.3,2.8,0.4,4.1
	c0,3.8,0,7.5,0.1,11.3C200.7,300.3,200.7,300.4,200.7,300.5z"/>
<path class="st5" d="M199.6,251.1c-1.3,0.1-2.6,0.1-3.8,0.1c0.4-0.4,0.8-0.7,1.4-0.8C198,250.3,198.9,250.5,199.6,251.1z"/>
<path class="st5" d="M200.4,255.6c0-1,0-2-0.1-3C200.8,253.3,200.7,254.5,200.4,255.6z"/>
<path class="st4" d="M247.1,288.7c0,2.7,0,5.3,0,7.8c0,1.4,0.1,2.6,0,4h-46.5c-0.1-4-0.1-7.8-0.1-11.6c0-1.6,0-3.1,0-4.5
	c-0.1-9.6-0.1-19.2-0.1-28.8c0-1,0-2-0.1-3c0.3-1,1-1.2,1.5-1.1c3.8,0,7,0,10.3,0c11.4,0.1,22.7,0.2,34,0.3c0.7,0,1.1,0.6,1.1,1.2v4
	C247.1,267.6,247.1,278.1,247.1,288.7z"/>
<path class="st2" d="M248,253.3c-0.4,2.6-0.7,5.2-1.1,7.8c-0.1,0.8-1,1.2-1.6,1c-0.2,0.1-14.7,0.1-43.6,0.1c-1.1,0-1.4-1.4-0.8-1.9
	c0.5-2.7,0.7-5.3,0.7-8c0-0.4,0.3-0.8,0.7-1c0.2-0.2,0.5-0.3,0.8-0.4c3.2-0.2,6.4-0.3,9.6-0.4c11.4-0.4,22.8,0.1,34.2,1.5
	C247.4,252.1,248,252.6,248,253.3z"/>
<path class="st5" d="M158.7,100.7l-19,19c-1.5,1.5-3.8,1.5-5.4,0l-19-19c-1-1-1.2-2.2-1.1-3.3c3.2,0.1,6.6,0,8.8-1.2
	c2.2-1.1,3.3-3.2,2.2-7c-0.3-0.9-0.6-1.7-1.1-2.5l10.2-10.3c1.5-1.4,3.8-1.4,5.4,0l19,19C160.1,96.8,160.1,99.1,158.7,100.7z"/>
<path class="st1" d="M275.2,211.3c-0.1,0.5-0.1,0.9-0.1,1.2c-1,4.5-6.3,4.8-9.6,2.5c-2.1-1.7-4.7-2.2-7.3-1.5
	c-4.1,1.2-5.6,5.6-8.4,8.4c-2.1,2.2-5.4,4.1-8.4,3c-3.3-1.1-4.3-4.8-3.3-7.8c0.6-1.7,1.5-3.3,2.3-4.8c0.8-1.5,1.8-3,2.8-4.5
	c3.2-4.8,7.3-8.7,13.1-10c5.4-1.1,10.7,1.9,14.6,5.4C273,205.1,275.2,208.3,275.2,211.3z"/>
<path class="st1" d="M281.6,208c-0.1,4-2.2,7.3-4,10.7c0,1.1-1.8,3.3-2.3,4.4c-0.8,1.6-1.6,3.1-2.5,4.7c-1.4,2.6-3.2,5.1-5.5,6.9
	s-5.8,2.5-8.2,0.6c-3.9-3-1.6-9.5,0-13.2c1.6-3.9,3.3-7.7,4.9-11.6c1.2-3,2.2-6.9,5.1-8.9c2.6-1.9,6.3-2.8,9.2-1
	C280.7,202.1,281.8,205.1,281.6,208z"/>
<path class="st1" d="M291.7,216.7c-0.6,2.6-1.7,5.4-2.9,7.8c-1.3,2.6-2.8,5-4.5,7.4c-1.6,2.2-3.6,4.7-5.9,6.5
	c-2.1,1.7-5.1,2.6-7.8,1.4c-2.9-1.2-3.3-4.1-2.8-6.7c0.6-2.6,1.9-5.4,3.2-7.8c0.3-0.5,0.6-0.9,0.8-1.4c1.4-3.9,3-7.8,4.8-11.4
	c-0.4-0.3-0.7-0.8-0.5-1.7c0.8-2.6,3.3-4.8,6.3-5.4c3.2-0.6,6.5,0.8,8.2,3.2C292.4,210.9,292.4,213.9,291.7,216.7z"/>
<path class="st1" d="M301,221.5c0,2.6-0.8,5.5-1.9,7.7c-2.6,4.7-4.5,10.9-10,12.8c-1.9,0.8-4.1,0.8-5.9-0.3
	c-3.7-1.9-2.9-5.5-2.1-8.8c1-3.9,2.6-7.6,4.8-10.9c2.1-2.9,5.1-7.3,8.9-7.3c1.6,0,2.9,0.6,4,1.5C300.3,217.6,300.9,219.4,301,221.5z
	"/>
<path class="st3" d="M262.5,214.5c0,0.6-0.7,1.2-1.2,1.1c-2.8-0.4-5.1,1.4-6.6,3.4c-3,3.6-5.6,8.4-10.9,8.4c-4.7,0-8.4-4.3-7.7-8.9
	c0.1-0.7,0.5-1.1,1.2-1.1c0.5,0,1.2,0.6,1.1,1.2c-0.3,2.2,0.6,4.4,2.5,5.6c1.5,1,3.6,1.1,5.4,0.3c1.8-1,3.2-2.6,4.4-4.3
	c2.6-3.4,5.8-7.7,10.7-7C262,213.4,262.5,213.8,262.5,214.5z"/>
<path class="st3" d="M286.3,249.6v2.5h-96.1c1-0.5,1.7-1.4,1.9-2.5H286.3z"/>
<path class="st3" d="M219.6,218.2v32.3c0,1.5-2.3,1.5-2.3-0.1v-32.2H219.6z"/>
<path class="st3" d="M248.5,251.5v49h-2.3v-49.1C246.2,249.9,248.5,250,248.5,251.5z"/>
<path class="st3" d="M202.2,251.8v48.7h-2.3v-48.9C199.8,250.1,202.2,250.3,202.2,251.8z"/>
<path class="st3" d="M246,263.8h-43.9c-1.5,0-1.4-2.3,0.1-2.3h43.9C247.8,261.4,247.7,263.8,246,263.8z"/>
<path class="st3" d="M106.8,183.2c-1.4,4.3-2.7,8.6-4.1,12.8c-5,15.2-10.7,30.2-16.9,44.9c-0.5,1.4-2.9,0.7-2.2-0.7
	c1.7-4.1,3.4-8.3,5.1-12.5c5.9-14.9,11.1-29.9,15.8-45.1C104.8,181,107.2,181.7,106.8,183.2z"/>
<path class="st3" d="M203,154.2c-8.1-1.7-16.4-3.3-24.7-3.7c-7.1-0.4-14.3,0.1-21.2,2.3c-6.3,2.1-12.1,5.4-17.7,9.1
	c-11.5,7.7-21.6,17.6-33.4,25c-1.4,0.8-2.5-1.2-1.2-2.1c6.9-4.3,13.1-9.4,19.4-14.5c10.6-8.5,21.9-17.2,35.2-20.6
	c14.6-3.9,29.8-0.8,44.4,2.2C205.2,152.3,204.5,154.6,203,154.2z"/>
<path class="st6" d="M105.8,143.5c0,0.7-0.7,1.2-1.4,1.1c-0.3,0-0.5,0-1.5,0c-0.5,0.1-1.1,0.3-2.2,0.6c-0.3,0.2-0.5,0.3-0.7,0.4
	c-0.3,0.1-0.5,0.3-1.4,0.8c-0.6,0.4-1.1,0.4-1.6-0.1c-0.4-0.4-0.4-1.2,0.1-1.7c2.1-1.7,4.8-2.5,7.4-2.3
	C105.2,142.4,105.8,142.8,105.8,143.5z"/>
<path class="st6" d="M297.4,227.1c-1.4,3.2-1.6,6.7-3.2,10c-1.2,2.9-3.3,5.5-6.6,6.5c-1.5,0.4-1.9-1.9-0.6-2.3
	c2.8-0.8,4.4-3.4,5.4-5.9c1.2-3.3,1.6-6.9,3.2-10c0.1-0.3,0.4-0.4,2.5-1.2c0.1,0,0.4,0.1,0.8,0.4c0.1,0.2,0.2,0.4,0.3,0.6
	C299.2,225.2,299.2,225.4,297.4,227.1z"/>
<path class="st6" d="M242.5,123c0.3,0.6,0.1,1.4-0.6,1.7c-1,0.4-2.1,0.8-3,1.4c0.2,1.2,0.4,2.3,0.6,3.4c0.1,0.7-0.3,1.2-0.8,1.4
	c-0.7,0.3-1.4-0.3-1.5-0.8c-0.2-1.1-0.4-2.2-0.6-3.4c-0.5,0.2-1.1,0.4-1.6,0.6c-0.6,0.1-1.2-0.3-1.4-1c-0.1-0.6,0.3-1.2,1-1.4
	c1.1-0.3,2.2-0.7,3.8-1.4c0.3-0.1,0.6-0.2,0.8-0.3c0.6-0.2,1.1-0.4,1.7-0.7C241.5,122.1,242.2,122.4,242.5,123z"/>
<path class="st6" d="M222.8,143.3c-4.5,2.8-9.9,4.3-15.1,4l-0.1-2.3c4.9,0.1,9.9-1.1,14.2-3.9C223.1,140.4,224.2,142.5,222.8,143.3z
	"/>
<path class="st6" d="M280.7,207.3c-4.1,9.4-8.2,18.7-12.4,28.1c-0.3,0.6-0.8,1-1.5,0.8c-0.6-0.3-1-1-0.7-1.5
	c4.1-9.4,8.2-18.7,12.4-28.1c0.3-0.7,0.8-1.1,1.5-0.8C280.5,205.9,280.9,206.8,280.7,207.3z"/>
<path class="st6" d="M289.5,216.4c-2.7,6.8-5.3,13.6-8,20.4c-0.5,1.4-2.9,0.7-2.3-0.7c2.7-6.8,5.4-13.6,8.1-20.4
	C287.8,214.2,290,215,289.5,216.4z"/>
<path class="st6" d="M198.6,103.8c1.8,3,3.4,6.5,3,10c-0.1,1.7-0.8,3-1.8,4.4c-0.4,0.6-0.8,1.1-0.7,1.8c0,0.1,0,0.7,0.3,0.7
	c1.5,0.1,1.4,2.5-0.1,2.3c-1.7-0.1-2.6-1.7-2.6-3.2c0-1.8,1.4-2.9,2.1-4.4c1.8-3.4-0.6-7.6-2.2-10.6
	C195.8,103.7,197.9,102.6,198.6,103.8z"/>
<path class="st6" d="M119.8,109.7c4.3,6.1,3.3,14,2.2,21.1c-0.8,6.6-3.2,13.6-8.9,17.6c-4.9,3.4-12.2,3.4-16.2-1.4
	c-1-1.2,0.8-2.9,1.8-1.7c1.8,2.2,4.7,3.2,7.4,3c3,0,5.8-1.7,7.8-3.7c2.2-2.3,3.6-5.1,4.5-8.1c-1.8-1.8-4-3.3-6.2-4.4
	c-4.3-1.9-9.1-2.6-13.7-1.7c-4.5,0.8-8.8,3.2-12.1,6.6c-1,1.1-2.6-0.7-1.5-1.8c1.9-2.1,4.4-3.9,6.9-5.1c4.7-2.3,10-3.2,15.1-2.2
	c4.5,0.8,8.8,2.9,12.2,5.9c0.4-2.2,0.7-4.5,1-6.7c0.1-1.5,0.3-3,0.4-4.5c-2.1-1.7-4.4-2.9-6.9-3.9c-9.5-3.7-20.5-2.1-28.5,4.4
	c-1.2,1-2.7-0.8-1.6-1.8c2.5-1.9,5.1-3.6,8-4.7c9.5-3.9,20.5-2.8,29,2.9c-0.1-3.9-1.1-7.6-4.1-10.3c-4.1-4-11-3.2-16.4-2.8
	c-5.1,0.4-11,1.2-14.4,5.5c-0.4,0.4-1.1,0.7-1.6,0.3c-0.4-0.3-0.7-1.1-0.3-1.7c4.4-5.5,12-6.2,18.6-6.6c3.3-0.3,6.6-0.4,9.8,0.4
	C115.1,105.2,118,107,119.8,109.7z"/>
<path class="st3" d="M289.2,242.4c-2.1,1.5-4.7,1.9-6.9,0.8c-1.4-0.7-2.3-1.8-2.9-3c-2.1,1.7-5.5,2.1-7.8,1.8
	c-2.1-0.1-3.8-1-5.1-2.8c-0.4-0.6-0.6-1.2-0.7-1.9c-1.9,1.1-4.3,1-6.1-0.1c-2.3-1.4-3.6-4.1-3.7-6.7c-0.3-3.3,1.1-6.5,2.2-9.5
	c2.3-6.3,5.2-12.4,8.1-18.6c0.3-0.6,0.8-1,1.5-0.7c0.6,0.1,1,1,0.7,1.5c-1.5,3-2.9,6.1-4.3,9.1c-1.2,2.7-2.3,5.4-3.4,8.3
	c-1,2.6-2.2,5.4-2.5,8.3c-0.1,2.2,0.3,4.7,2.2,6.2c1.2,1,3.7,1.1,4.8-0.4c0.3-0.3,0.5-0.4,1-0.4c0.7-1.2,2.6,0,1.9,1.4
	c-0.6,0.8-0.1,2.1,0.6,2.8c0.8,1.1,2.2,1.4,3.4,1.5c2.1,0,5.6-0.3,6.3-2.6c0.4-1.2,2.1-1,2.8,1.5c0,0.3,0.3,0.8,0.4,1
	c0.4,0.6,1,1.1,1.6,1.4c0,0,0.4,0.1,3.2,0.1c0.3,0,0.4-0.1,1-0.4c0.6-0.4,1.2-0.4,1.7,0C289.6,241.2,289.7,242.1,289.2,242.4z"/>
<path class="st0" d="M196.9,105.3c-4.3-0.6-9.1-2.1-12.9,0.4c-1,0.7-2.3-0.7-1.7-1.7c0.3-0.3,0.6-0.6,1-1c-0.4-0.4-0.4-1.4,0.3-1.8
	c2.8-1.4,5.8-2.8,8.8-2.2c2.7,0.4,5.1,2.1,5.8,4.7C198.5,104.5,197.8,105.3,196.9,105.3z"/>
<path class="st3" d="M127.4,92.4c-0.4,2.6-2.1,4.5-4.5,5.4c-2.3,0.7-4.9,0.6-7.4,0.4c-3-0.3-6-0.6-9.1-1c-1.5-0.3-1.4-2.6,0.1-2.5
	c2.6,0.4,5.2,0.7,7.8,1c2.2,0.1,4.4,0.4,6.6,0c1.9-0.3,3.6-1.2,4.1-3.2c0.4-2.2-0.6-4.3-1.8-5.8c-1-1.2,0.8-2.9,1.8-1.7
	C126.7,87.2,127.8,89.8,127.4,92.4z"/>
<path class="st3" d="M162.6,75.7c-1.1,1.1-2.9,1.2-4.1,0.4c-1.4-1-2.2-2.6-1.6-4.5c0.4-0.7,0.9-1.3,1.6-1.7c0.7-0.4,1.5-0.6,2.2-0.4
	c1.5,0.1,2.8,1,3,2.5C164.1,73.4,163.5,74.9,162.6,75.7z"/>
<path class="st7" d="M170.3,126.9c-2,3.8-4.4,7.3-7,10.7c-0.5,0.7-1.6,0.7-2.1-0.1c-1.8-3.9-3.7-7.7-5.5-11.6
	c-0.3-0.6-0.1-1.1,0.3-1.4c0.1-0.6,0.7-1.1,1.2-1.1c4,0.6,8.1,1.1,12.1,1.7C170.3,125.3,170.7,126.1,170.3,126.9z M162.4,134.7
	c1.8-2.3,3.5-4.8,4.9-7.4c-3-0.4-6-0.7-8.9-1.1C159.8,129,161.2,131.8,162.4,134.7z"/>
<path class="st2" d="M301.6,142.2c-3.9,0.2-7.7,0.3-11.5,0.4c-0.8,0.1-1.4-1.1-0.8-1.8c1.9-2.7,3.8-5.4,5.6-8.1
	c0.5-0.7,1.4-0.6,1.8-0.3c0.4,0,0.8,0.3,1.1,0.7c1.6,2.5,3.3,5,5,7.4C303.2,141.4,302.4,142.2,301.6,142.2z"/>
<path class="st5" d="M290.3,115.8c-0.5,1.7-1,3.4-1.5,5.1c-0.1,0.7-0.8,1-1.5,0.8c-0.5-0.3-1-1-0.7-1.5l1.4-5.1c0.3-0.7,1-1,1.5-0.8
	C290.2,114.4,290.4,115.2,290.3,115.8z"/>
<path class="st5" d="M296.5,123.4c0,0.1-0.3,0.6-0.5,0.7c-1,0.4-2,0.7-3,1.1c-0.1,0.1-0.4,0.1-0.8,0.1c-0.4-0.1-0.5-0.3-0.7-0.6
	c-0.1-0.3-0.3-0.7-0.1-1c0.1-0.3,0.3-0.6,0.5-0.7c1-0.4,2-0.8,3-1.2c0.3-0.1,0.4-0.1,1,0c0.3,0,0.5,0.3,0.7,0.6
	C296.6,122.7,296.6,123.1,296.5,123.4z"/>
<path class="st5" d="M144.4,270.2c-1,1.2-2.7,1.5-4.1,0.8c-1.4-0.7-2.5-2.1-2.2-4.8c0.7-1.5,2.2-2.5,3.9-2.5
	c0.7,0.1,1.5,0.3,2.1,0.7c0.6,0.5,1.1,1.1,1.4,1.9C145.8,267.7,145.4,269.3,144.4,270.2z"/>
<path class="st3" d="M137,107c4.9,0,8.9-4,8.9-8.9c0-4.9-4-8.9-8.9-8.9c-4.9,0-8.9,4-8.9,8.9C128.1,103,132.1,107,137,107z"/>
</svg>
